<?xml version="1.0" encoding="UTF-8" standalone="no"?>
<!DOCTYPE svg PUBLIC "-//W3C//DTD SVG 1.1//EN" "http://www.w3.org/Graphics/SVG/1.1/DTD/svg11.dtd">
<svg xmlns="http://www.w3.org/2000/svg" version="1.1" viewBox="0.00 0.00 750.00 750.00">
<g stroke-width="2.00" fill="none" stroke-linecap="butt">
<path stroke="#ebba6a" vector-effect="non-scaling-stroke" d="
  M 258.17 127.24
  Q 255.44 127.56 253.20 128.43
  C 239.57 133.72 226.64 141.21 214.07 148.62
  Q 204.26 154.40 192.65 163.41
  Q 188.68 166.48 186.28 169.44
  Q 185.66 170.21 185.16 170.60
  Q 183.22 172.13 183.39 170.49"
/>
<path stroke="#70706d" vector-effect="non-scaling-stroke" d="
  M 183.39 170.49
  Q 187.23 166.27 190.64 161.79
  C 195.77 155.05 201.71 148.86 206.46 141.62
  A 0.53 0.53 0.0 0 0 205.98 140.80
  Q 205.65 140.83 205.20 141.19
  Q 186.95 155.93 169.33 171.50"
/>
<path stroke="#ebe3d9" vector-effect="non-scaling-stroke" d="
  M 169.33 171.50
  Q 169.37 170.61 169.87 169.75
  Q 170.16 169.26 169.60 169.22
  C 168.01 169.09 166.87 170.60 165.68 171.47"
/>
<path stroke="#e8e4de" vector-effect="non-scaling-stroke" d="
  M 165.68 171.47
  Q 161.39 174.36 158.88 178.00
  Q 157.90 179.42 159.21 180.10"
/>
<path stroke="#70706d" vector-effect="non-scaling-stroke" d="
  M 159.21 180.10
  L 133.03 203.13
  A 1.27 1.26 -20.9 0 0 132.60 204.08
  L 132.69 226.59"
/>
<path stroke="#ebba6a" vector-effect="non-scaling-stroke" d="
  M 132.69 226.59
  Q 132.04 228.72 132.04 231.50
  Q 132.02 305.63 132.04 379.75
  Q 132.04 384.11 131.77 388.02
  A 3.65 3.62 -67.6 0 0 133.00 391.00
  C 147.83 403.98 158.64 415.72 173.85 433.65
  Q 183.49 445.01 193.03 460.24
  C 197.60 467.53 199.42 470.13 198.22 478.24
  C 196.59 489.25 194.03 498.98 192.47 506.72
  Q 187.37 532.16 182.28 557.61
  C 182.13 558.38 181.60 558.73 181.56 559.62
  Q 181.51 560.78 181.50 560.87
  Q 178.02 580.37 174.10 599.80
  Q 173.90 600.83 173.83 601.97
  Q 173.81 602.45 174.26 602.59
  Q 174.70 602.72 175.00 602.25
  C 176.62 599.72 175.30 596.53 179.41 595.37"
/>
<path stroke="#70706d" vector-effect="non-scaling-stroke" d="
  M 179.41 595.37
  L 180.48 595.62"
/>
<path stroke="#ebe3d9" vector-effect="non-scaling-stroke" d="
  M 180.48 595.62
  Q 179.93 595.84 179.38 596.02
  Q 179.05 596.13 178.92 596.32
  Q 178.77 596.54 178.78 596.74
  Q 178.79 597.27 179.33 597.34
  C 187.05 598.27 195.29 598.14 202.42 599.13
  Q 210.98 600.32 215.25 601.12
  C 220.24 602.06 225.34 604.10 230.43 605.46
  C 233.68 606.32 236.33 607.22 240.09 608.22
  Q 242.02 608.72 244.26 609.84
  C 245.63 610.52 247.91 610.97 249.54 611.68
  Q 254.45 613.82 259.36 615.97
  Q 263.12 617.61 267.49 620.49
  Q 273.99 624.78 281.01 628.12
  Q 284.54 629.79 288.34 632.31
  Q 292.60 635.14 297.23 637.32
  C 299.96 638.61 302.30 640.30 304.89 641.80
  C 307.00 643.02 309.47 643.52 311.79 644.65
  Q 314.22 645.83 316.88 646.96
  Q 319.57 648.10 321.99 649.83
  Q 322.43 650.15 322.96 650.19
  Q 323.66 650.24 323.92 650.85
  Q 324.11 651.30 324.53 651.55
  L 334.73 657.55"
/>
<path stroke="#ebba6a" vector-effect="non-scaling-stroke" d="
  M 334.73 657.55
  Q 334.41 658.17 333.70 657.69
  Q 333.30 657.43 332.82 657.38
  L 329.62 657.05
  Q 328.99 656.98 329.60 657.57
  Q 330.01 657.97 329.78 658.77"
/>
<path stroke="#ebe3d9" vector-effect="non-scaling-stroke" d="
  M 329.78 658.77
  C 322.76 655.09 315.92 649.73 308.89 646.88
  Q 308.12 646.57 307.65 646.88
  Q 307.23 647.16 307.61 647.49
  C 309.88 649.45 312.63 650.75 314.81 652.42
  Q 320.00 656.38 322.87 657.89
  C 324.96 658.98 326.30 660.64 327.76 661.65
  C 343.20 672.29 356.88 685.75 370.20 698.91
  C 372.60 701.28 374.72 704.02 377.03 706.66
  A 1.36 1.36 0.0 0 0 379.13 706.59
  C 381.42 703.60 383.73 700.61 386.52 697.99
  C 391.06 693.74 395.86 689.72 400.28 685.44
  C 410.16 675.87 420.79 667.60 431.05 658.52
  C 433.37 656.46 437.00 654.37 438.79 651.95
  Q 440.73 649.33 437.96 650.93
  L 432.90 653.86
  Q 432.28 654.22 432.64 653.60
  Q 433.31 652.47 434.53 651.89
  Q 434.63 651.84 434.63 651.73
  Q 434.63 651.61 434.64 651.48
  Q 434.64 651.37 434.50 651.37
  L 433.53 651.37
  A 0.31 0.31 0.0 0 1 433.48 650.75
  Q 433.86 650.69 433.88 650.51
  Q 433.91 650.19 433.63 650.35
  Q 433.33 650.53 432.91 650.61
  A 0.23 0.22 -66.5 0 1 432.75 650.20
  L 440.57 645.17
  Q 440.95 644.92 441.15 644.51
  Q 441.92 642.89 443.00 642.61
  Q 448.69 641.15 453.11 637.94"
/>
<path stroke="#e8e4de" vector-effect="non-scaling-stroke" d="
  M 453.11 637.94
  L 459.94 634.34"
/>
<path stroke="#ebe3d9" vector-effect="non-scaling-stroke" d="
  M 459.94 634.34
  Q 461.31 634.10 462.12 632.91
  A 1.34 1.30 -78.3 0 1 462.93 632.36
  Q 464.86 631.93 466.08 630.73"
/>
<path stroke="#e8e4de" vector-effect="non-scaling-stroke" d="
  M 466.08 630.73
  Q 474.92 625.39 477.77 624.17
  Q 482.61 622.09 486.68 618.82
  Q 488.87 617.06 491.07 616.27
  Q 501.17 612.62 511.13 608.65
  Q 517.78 605.99 534.75 602.88
  C 537.85 602.31 540.66 601.31 543.80 600.93
  C 548.70 600.34 553.35 598.84 558.13 598.42
  Q 562.02 598.07 565.89 597.51
  C 567.45 597.29 568.84 596.68 570.36 596.21
  A 0.48 0.46 71.5 0 0 570.66 595.59
  Q 570.57 595.36 570.24 595.29
  Q 569.35 595.10 568.44 594.96"
/>
<path stroke="#70706d" vector-effect="non-scaling-stroke" d="
  M 568.44 594.96
  L 569.35 594.33"
/>
<path stroke="#ebba6a" vector-effect="non-scaling-stroke" d="
  M 569.35 594.33
  C 573.44 594.77 574.32 599.96 575.38 603.13
  Q 575.59 603.77 576.42 603.61
  Q 576.81 603.54 576.85 603.14
  C 577.03 601.46 576.41 600.03 576.30 598.63
  C 575.90 593.54 575.89 588.15 574.53 583.21
  C 573.25 578.55 573.76 573.62 572.83 568.80
  C 571.53 562.10 570.29 555.52 569.69 548.71
  C 569.37 545.03 568.43 541.46 568.14 537.80
  Q 567.96 535.60 567.67 533.40
  Q 564.58 509.94 561.46 486.48
  C 560.81 481.56 559.78 472.56 562.23 468.42
  C 576.92 443.63 594.18 423.07 614.05 401.97
  C 618.13 397.63 622.75 393.58 627.20 389.46
  C 630.34 386.55 629.32 380.39 629.31 376.50
  Q 629.10 301.46 629.32 227.04"
/>
<path stroke="#70706d" vector-effect="non-scaling-stroke" d="
  M 629.32 227.04
  L 629.45 204.30
  Q 629.46 203.41 628.77 202.86
  Q 622.35 197.71 615.91 191.88
  Q 586.37 165.13 555.21 140.30
  Q 554.48 139.72 554.05 139.94
  A 0.46 0.45 -28.7 0 0 553.86 140.58
  C 558.23 148.08 563.73 153.77 569.02 160.75"
/>
<path stroke="#ebba6a" vector-effect="non-scaling-stroke" d="
  M 569.02 160.75
  Q 562.74 157.66 557.75 153.22
  A 10.36 10.27 -11.8 0 0 555.00 151.44
  C 551.35 149.84 547.39 146.77 543.81 144.82
  C 535.16 140.09 526.62 135.17 517.78 130.80
  Q 502.27 123.13 486.59 115.81
  Q 479.75 112.61 472.53 109.64"
/>
<path stroke="#e8e4de" vector-effect="non-scaling-stroke" d="
  M 472.53 109.64
  Q 473.23 109.45 472.17 107.51
  Q 471.72 106.70 470.91 105.84
  Q 468.33 103.11 465.86 100.29
  Q 465.17 99.51 464.10 98.79
  Q 463.13 98.13 462.25 97.36
  C 461.23 96.47 459.29 95.88 458.60 94.73
  Q 458.36 94.32 457.93 94.11
  Q 456.58 93.44 454.98 91.65
  C 451.57 87.84 448.00 89.50 443.91 89.75
  C 436.91 90.17 429.66 91.24 423.02 91.64
  Q 412.50 92.29 401.93 93.38"
/>
<path stroke="#ebba6a" vector-effect="non-scaling-stroke" d="
  M 401.93 93.38
  Q 403.01 92.45 402.93 91.41
  Q 402.88 90.88 402.36 90.80
  C 400.94 90.57 399.63 90.21 398.20 90.24
  Q 386.84 90.45 375.56 91.47
  Q 374.85 91.53 374.29 91.87
  Q 373.09 92.60 373.30 92.82"
/>
<path stroke="#e8e4de" vector-effect="non-scaling-stroke" d="
  M 373.30 92.82
  Q 364.34 91.25 354.75 91.08
  Q 346.93 90.95 339.11 90.64
  Q 338.37 90.61 336.70 90.24
  C 332.39 89.31 327.74 89.25 323.76 89.14
  Q 317.51 88.96 313.29 88.46
  Q 307.54 87.78 301.77 87.42
  C 298.09 87.19 293.81 86.53 289.78 86.38
  Q 289.30 86.37 288.91 86.63
  C 288.07 87.19 287.86 87.54 286.81 87.71
  Q 285.08 87.98 283.80 88.43
  A 8.32 8.29 -74.0 0 0 281.47 89.73
  Q 274.25 95.50 267.18 101.93
  C 263.22 105.53 261.22 107.04 260.64 111.88
  Q 260.08 116.61 258.17 127.24"
/>
<path stroke="#f9cc82" vector-effect="non-scaling-stroke" d="
  M 373.30 92.82
  Q 373.80 95.17 376.12 95.11
  Q 389.09 94.82 401.93 93.38"
/>
<path stroke="#f9cc82" vector-effect="non-scaling-stroke" d="
  M 472.53 109.64
  L 472.32 142.11
  A 2.34 2.34 0.0 0 0 473.80 144.30
  C 475.65 145.03 478.00 144.83 479.46 144.97
  C 490.91 146.06 502.22 148.03 513.64 149.14
  Q 519.46 149.71 523.54 153.93
  Q 528.74 159.32 533.73 165.90
  C 537.54 170.92 539.35 173.02 538.03 179.00
  Q 532.59 203.69 524.38 248.28
  Q 523.26 254.33 522.59 260.09
  Q 522.37 262.00 523.03 263.81
  Q 532.52 289.68 542.10 315.96
  C 545.84 326.23 549.48 337.15 552.43 347.81
  A 2.14 2.13 61.6 0 1 551.79 349.97
  C 545.87 355.25 540.66 361.54 535.20 367.38
  C 522.89 380.56 511.46 394.35 498.77 407.23
  Q 494.00 412.07 490.74 415.74
  C 487.09 419.84 483.66 423.97 479.89 427.99
  C 477.91 430.11 479.61 438.05 479.81 441.00
  Q 485.22 519.69 490.40 598.96"
/>
<path stroke="#7e8285" vector-effect="non-scaling-stroke" d="
  M 490.40 598.96
  L 484.78 601.61
  Q 483.71 602.11 483.61 600.93
  C 478.71 543.43 474.12 485.80 469.98 428.14
  Q 469.80 425.55 471.36 423.87
  C 491.98 401.59 513.61 380.21 533.74 357.48
  Q 538.85 351.71 544.07 346.84
  A 1.88 1.88 0.0 0 0 544.55 344.82
  Q 532.62 312.54 520.90 281.37
  Q 518.85 275.92 516.43 270.65
  C 514.41 266.23 516.48 263.97 517.24 260.50
  Q 526.30 219.54 535.03 178.50
  C 535.47 176.44 535.61 174.91 534.24 173.09
  Q 528.03 164.92 521.55 156.97
  Q 519.03 153.87 516.27 153.51
  C 509.57 152.64 502.74 151.48 496.21 150.78
  Q 482.71 149.35 469.09 147.72
  Q 468.70 147.67 468.71 147.28
  L 469.06 108.89
  A 2.61 2.60 -68.4 0 0 468.23 106.96
  L 452.61 92.43
  A 2.06 2.06 0.0 0 0 451.03 91.89
  Q 417.76 94.59 384.48 98.53
  Q 379.11 99.17 373.68 99.62
  A 1.06 1.04 -13.3 0 1 372.62 98.98
  L 371.46 96.15
  A 2.13 2.13 0.0 0 0 369.62 94.84
  Q 359.72 94.27 350.02 93.42
  C 330.50 91.71 311.02 90.40 291.50 89.01
  C 289.44 88.86 288.13 88.98 286.52 90.47
  Q 277.70 98.64 268.30 106.17
  C 264.86 108.92 263.19 111.29 262.93 115.49
  C 261.52 138.17 260.34 160.78 258.09 183.40
  C 257.59 188.41 251.80 193.94 248.42 197.43
  Q 211.08 235.93 173.62 274.16
  A 1.83 1.83 0.0 0 0 173.21 276.06
  C 178.11 289.46 183.85 303.75 188.51 316.11
  Q 203.27 355.30 218.89 394.16
  Q 219.23 395.01 219.96 395.56
  Q 249.82 418.06 278.74 441.76
  C 280.61 443.30 283.20 444.96 282.98 447.75
  Q 278.50 503.12 274.48 558.53
  C 273.49 572.22 272.10 586.96 271.01 601.22
  A 0.83 0.83 0.0 0 1 269.89 601.94
  L 264.54 599.96"
/>
<path stroke="#f9cc82" vector-effect="non-scaling-stroke" d="
  M 264.54 599.96
  C 264.60 595.84 265.30 591.20 265.51 587.67
  Q 267.85 548.43 270.74 509.22
  C 272.18 489.78 273.12 470.24 274.61 450.75
  C 274.74 449.00 274.91 447.45 273.44 446.31
  Q 261.46 437.01 240.88 421.90
  C 233.10 416.19 224.90 409.71 216.83 403.69
  C 211.79 399.93 210.13 392.98 207.96 387.32
  C 194.49 352.28 181.18 317.23 168.92 281.74
  C 167.95 278.96 164.72 275.42 167.49 272.60
  C 175.05 264.91 182.44 257.09 189.97 249.39
  Q 205.77 233.23 221.45 216.94
  Q 234.63 203.25 248.53 190.29
  C 251.84 187.21 253.48 184.37 253.88 179.58
  C 255.04 165.58 256.49 151.58 257.36 137.58
  Q 257.68 132.43 258.17 127.24"
/>
<path stroke="#815811" vector-effect="non-scaling-stroke" d="
  M 569.02 160.75
  Q 578.78 170.72 588.94 181.80
  Q 605.89 200.30 621.80 219.70
  Q 625.17 223.80 629.32 227.04"
/>
<path stroke="#815811" vector-effect="non-scaling-stroke" d="
  M 490.40 598.96
  Q 517.80 588.04 546.23 580.01
  A 1.70 1.69 82.1 0 0 547.46 578.38
  Q 547.41 515.37 547.58 451.75
  Q 547.63 435.75 547.19 419.77
  Q 547.18 419.60 547.36 419.58
  L 547.37 419.58
  Q 547.54 419.57 547.56 419.74
  L 569.35 594.33"
/>
<path stroke="#7e8285" vector-effect="non-scaling-stroke" d="
  M 568.44 594.96
  C 561.49 595.88 553.81 596.54 547.55 597.60
  Q 520.86 602.13 492.99 613.26
  Q 488.20 615.17 485.93 616.32
  C 484.16 617.22 483.34 619.45 482.02 620.06
  Q 466.42 627.26 451.31 635.03"
/>
<path stroke="#81817f" vector-effect="non-scaling-stroke" d="
  M 451.31 635.03
  C 426.10 648.97 401.51 663.95 379.30 682.41
  A 1.91 1.91 0.0 0 1 376.90 682.45
  C 366.00 674.05 354.80 665.59 343.21 658.32
  C 328.63 649.18 313.32 641.52 298.21 633.56
  C 291.79 630.18 285.39 627.32 278.86 624.40
  C 272.96 621.76 267.73 617.15 261.77 614.60
  C 236.80 603.94 209.62 596.35 180.48 595.62"
/>
<path stroke="#815811" vector-effect="non-scaling-stroke" d="
  M 179.41 595.37
  Q 183.54 577.49 185.43 567.00
  Q 194.91 514.45 207.14 462.49
  C 211.18 445.35 214.59 428.62 218.18 411.67
  Q 218.24 411.41 218.50 411.46
  L 218.75 411.50
  Q 218.77 411.50 218.77 411.53
  Q 216.50 428.45 215.15 445.49
  Q 214.29 456.36 211.74 478.50
  Q 208.48 506.80 202.70 568.02
  Q 202.16 573.72 201.91 579.03
  A 1.46 1.46 0.0 0 0 203.03 580.51
  Q 218.64 584.26 233.50 589.03
  Q 244.28 592.49 264.54 599.96"
/>
<path stroke="#815811" vector-effect="non-scaling-stroke" d="
  M 132.69 226.59
  Q 135.75 223.91 139.46 219.47
  Q 158.79 196.35 183.39 170.49"
/>
<path stroke="#f8f5f1" vector-effect="non-scaling-stroke" d="
  M 466.08 630.73
  Q 462.27 631.11 459.94 634.34"
/>
<path stroke="#f8f5f1" vector-effect="non-scaling-stroke" d="
  M 453.11 637.94
  L 451.31 635.03"
/>
<path stroke="#fccb7d" vector-effect="non-scaling-stroke" d="
  M 329.78 658.77
  C 347.73 670.46 363.06 685.19 376.90 701.50
  A 0.64 0.63 -44.2 0 0 377.86 701.51
  Q 383.94 694.70 391.01 688.52
  C 398.92 681.61 406.71 673.91 414.57 667.65
  Q 420.09 663.24 425.74 658.99
  Q 426.64 658.32 427.11 657.02
  Q 427.28 656.54 426.79 656.42
  Q 425.74 656.15 424.92 656.79
  Q 424.49 657.12 423.95 657.14
  C 418.98 657.35 416.41 660.50 412.84 662.37
  C 408.40 664.70 404.23 667.87 400.54 670.01
  Q 389.18 676.61 379.08 684.83
  A 2.44 2.43 -45.5 0 1 376.06 684.86
  Q 356.53 669.67 334.73 657.55"
/>
<path stroke="#7e8285" vector-effect="non-scaling-stroke" d="
  M 159.21 180.10
  L 167.25 173.22"
/>
<path stroke="#81817f" vector-effect="non-scaling-stroke" d="
  M 167.25 173.22
  L 169.33 171.50"
/>
<path stroke="#f8f5f1" vector-effect="non-scaling-stroke" d="
  M 167.25 173.22
  Q 167.09 172.70 167.15 172.12
  Q 167.20 171.57 166.65 171.53
  L 165.68 171.47"
/>
<path stroke="#81817f" vector-effect="non-scaling-stroke" d="
  M 292.31 101.56
  C 289.77 103.59 279.84 111.72 279.98 115.00
  C 280.65 131.47 279.50 148.17 279.05 164.60
  Q 279.02 165.45 279.87 165.44
  Q 318.80 165.00 357.58 161.56
  Q 358.46 161.48 358.45 160.59
  L 357.96 109.27
  Q 357.96 108.79 357.48 108.71
  C 336.25 105.44 314.85 103.43 293.45 101.22
  A 1.63 1.57 -60.6 0 0 292.31 101.56"
/>
<path stroke="#815811" vector-effect="non-scaling-stroke" d="
  M 401.29 246.80
  C 397.99 252.03 394.89 257.19 390.76 261.77
  Q 387.80 265.05 384.76 268.27
  A 1.06 1.06 0.0 0 0 385.13 269.98
  C 396.60 274.76 412.12 277.54 424.36 274.55
  Q 432.06 272.67 432.80 264.77
  Q 433.41 258.17 434.46 252.29"
/>
<path stroke="#81817f" vector-effect="non-scaling-stroke" d="
  M 434.46 252.29
  L 447.84 168.36
  A 1.51 1.51 0.0 0 0 446.81 166.68
  Q 443.75 165.70 440.75 163.76
  C 437.47 161.64 434.78 160.83 431.25 160.61
  Q 416.97 159.73 396.50 159.25
  Q 393.38 159.18 389.61 158.31
  Q 389.17 158.20 389.03 157.78
  Q 388.77 157.02 389.50 156.95
  C 409.60 154.91 424.87 153.71 439.49 150.33
  Q 441.18 149.94 442.26 151.29
  L 447.65 157.96
  A 0.58 0.58 0.0 0 0 448.65 157.78
  Q 448.83 157.24 448.94 156.49
  Q 451.52 138.46 452.21 120.26
  Q 452.29 118.08 451.58 117.21
  Q 447.22 111.81 442.23 107.27
  A 2.96 2.94 65.1 0 0 440.11 106.49
  Q 437.92 106.58 435.36 106.90
  Q 408.12 110.25 380.95 114.12
  C 379.73 114.30 378.42 114.21 377.17 114.27
  A 0.90 0.90 0.0 0 0 376.31 115.17
  L 376.41 161.35
  Q 376.41 162.14 377.20 162.22
  Q 382.98 162.80 388.75 164.18
  C 393.08 165.22 394.70 166.49 396.31 170.46
  Q 403.31 187.68 404.55 192.23
  C 409.09 208.92 409.51 231.04 401.29 246.80"
/>
<path stroke="#fccb7d" vector-effect="non-scaling-stroke" d="
  M 434.46 252.29
  L 401.29 246.80"
/>
<path stroke="#815811" vector-effect="non-scaling-stroke" d="
  M 454.94 244.79
  Q 453.10 254.77 449.80 264.73
  A 1.46 1.46 0.0 0 0 450.71 266.57
  C 460.67 269.97 489.59 277.51 495.35 263.27
  Q 497.24 258.57 498.57 252.29"
/>
<path stroke="#81817f" vector-effect="non-scaling-stroke" d="
  M 498.57 252.29
  Q 503.39 236.47 507.62 218.26
  Q 507.94 216.85 508.02 215.68
  Q 508.06 215.17 507.61 214.91
  C 496.03 208.27 484.02 206.85 471.17 203.77
  A 0.61 0.61 0.0 0 1 470.75 202.93
  Q 471.02 202.29 472.01 202.32
  Q 485.77 202.66 499.54 201.98
  C 504.16 201.76 506.29 205.35 508.49 208.72
  A 0.69 0.69 0.0 0 0 509.73 208.55
  L 517.95 182.47
  A 3.45 3.43 -54.3 0 0 517.46 179.44
  C 514.73 175.63 508.38 165.43 503.57 164.85
  C 491.93 163.46 480.23 162.51 468.69 160.43
  A 1.44 1.44 0.0 0 0 467.03 161.56
  Q 466.79 162.76 466.59 164.26
  C 462.92 191.11 459.87 217.17 454.94 244.79"
/>
<path stroke="#fccb7d" vector-effect="non-scaling-stroke" d="
  M 498.57 252.29
  C 496.25 251.81 493.94 251.08 491.78 250.69
  Q 478.05 248.20 464.33 245.63
  C 461.26 245.05 458.13 245.04 454.94 244.79"
/>
<path stroke="#81817f" vector-effect="non-scaling-stroke" d="
  M 334.09 176.88
  Q 332.76 177.06 331.49 177.58
  Q 331.04 177.77 331.00 178.25
  Q 330.81 181.24 331.58 183.45
  C 335.69 195.16 341.16 208.45 350.59 217.90
  A 1.52 1.51 -29.4 0 0 352.05 218.30
  C 360.64 216.08 370.37 213.16 377.96 208.44
  C 381.51 206.24 382.98 202.45 384.09 198.62
  C 386.28 191.13 376.60 174.30 368.26 173.71
  Q 362.42 173.30 352.24 174.55
  Q 343.16 175.67 334.09 176.88"
/>
<path stroke="#81817f" vector-effect="non-scaling-stroke" d="
  M 335.39 224.25
  L 344.29 220.93
  A 0.55 0.55 0.0 0 0 344.47 220.00
  C 332.90 209.75 326.83 194.51 319.35 181.39
  Q 318.35 179.63 316.33 179.81
  L 313.25 180.09
  Q 311.20 180.28 311.95 182.20
  C 317.28 195.99 323.81 210.33 332.52 223.33
  A 2.42 2.42 0.0 0 0 335.39 224.25"
/>
<path stroke="#73420e" vector-effect="non-scaling-stroke" d="
  M 197.46 286.11
  Q 200.45 292.20 203.55 298.09
  C 217.78 325.15 230.38 353.60 242.31 381.75
  Q 244.33 386.52 246.02 388.22
  C 251.59 393.80 261.01 399.90 266.31 403.95
  Q 278.94 413.60 291.86 422.88
  Q 293.16 423.81 295.18 422.59"
/>
<path stroke="#815811" vector-effect="non-scaling-stroke" d="
  M 295.18 422.59
  Q 300.25 420.96 302.01 420.24
  Q 333.60 407.45 364.88 393.89
  Q 371.56 391.00 378.31 389.51"
/>
<path stroke="#81817f" vector-effect="non-scaling-stroke" d="
  M 378.31 389.51
  C 382.13 391.56 383.35 398.65 384.29 403.03"
/>
<path stroke="#815811" vector-effect="non-scaling-stroke" d="
  M 384.29 403.03
  Q 384.47 406.45 383.39 408.92
  Q 380.71 415.05 379.63 419.77
  C 378.38 425.25 376.58 430.61 375.92 436.20
  Q 375.63 438.67 374.72 436.36
  Q 373.14 432.35 370.81 427.92
  Q 370.46 427.27 369.99 427.20
  A 0.63 0.63 0.0 0 0 369.28 427.79
  C 369.01 431.87 368.58 436.03 368.56 440.08
  Q 368.41 489.63 367.69 503.00
  Q 367.08 514.51 366.65 526.06"
/>
<path stroke="#81817f" vector-effect="non-scaling-stroke" d="
  M 366.65 526.06
  Q 364.95 549.01 363.37 572.00
  Q 363.30 573.02 362.57 573.02
  A 0.81 0.81 0.0 0 1 361.76 572.27
  C 361.08 562.93 360.81 552.99 360.13 544.26
  C 358.35 521.44 356.83 498.60 354.91 475.79
  Q 353.41 457.90 352.26 439.95
  A 0.75 0.75 0.0 0 0 351.44 439.25
  Q 346.61 439.75 342.23 441.75"
/>
<path stroke="#815811" vector-effect="non-scaling-stroke" d="
  M 342.23 441.75
  Q 332.32 444.12 321.82 444.77
  A 1.70 1.69 -0.4 0 0 320.24 446.37
  L 312.38 605.38
  A 0.73 0.73 0.0 0 0 313.05 606.14
  L 330.89 607.43"
/>
<path stroke="#81817f" vector-effect="non-scaling-stroke" d="
  M 330.89 607.43
  Q 370.55 609.92 410.03 607.71
  C 414.74 607.44 420.58 606.68 425.88 606.40
  Q 444.91 605.39 463.71 602.55
  A 0.54 0.53 -7.0 0 0 464.16 601.98
  C 463.07 587.40 461.09 571.52 459.88 558.30
  Q 454.63 500.97 448.35 443.74
  Q 448.13 441.76 446.77 441.38
  Q 436.55 438.49 426.38 434.35
  A 0.99 0.99 0.0 0 0 425.02 435.30
  L 431.26 601.97
  A 1.30 1.30 0.0 0 1 430.13 603.30
  L 419.15 604.70
  A 0.91 0.91 0.0 0 1 418.13 603.85
  Q 413.63 525.96 411.42 448.00
  Q 411.17 439.12 411.19 430.24
  Q 411.19 429.07 410.17 428.50
  Q 404.39 425.26 398.00 423.23
  Q 396.48 422.75 395.46 421.53
  Q 395.13 421.13 395.16 420.61
  C 395.39 415.96 395.75 411.66 394.99 406.82
  C 394.45 403.38 391.74 399.93 390.11 396.44
  Q 382.50 380.08 374.96 363.75"
/>
<path stroke="#7e8285" vector-effect="non-scaling-stroke" d="
  M 374.96 363.75
  Q 361.79 336.23 344.93 311.17
  Q 344.59 310.67 344.01 310.51
  Q 322.65 304.41 300.96 303.74"
/>
<path stroke="#81817f" vector-effect="non-scaling-stroke" d="
  M 300.96 303.74
  L 296.97 303.43"
/>
<path stroke="#70706d" vector-effect="non-scaling-stroke" d="
  M 296.97 303.43
  L 284.03 303.12"
/>
<path stroke="#81817f" vector-effect="non-scaling-stroke" d="
  M 284.03 303.12
  C 276.84 303.42 271.37 308.54 263.81 309.18
  A 0.71 0.71 0.0 0 1 263.21 308.02
  Q 273.42 295.81 284.58 284.07
  Q 285.39 283.22 285.55 282.58
  Q 285.82 281.52 284.73 281.59
  C 276.02 282.12 267.95 282.67 258.81 283.80
  Q 247.81 285.16 236.76 286.12
  Q 236.10 286.18 235.68 285.87
  A 0.35 0.35 0.0 0 1 235.72 285.28
  C 246.99 279.40 257.87 273.77 269.75 268.56
  C 275.03 266.24 282.34 263.62 287.49 259.96
  Q 287.91 259.67 288.06 259.18
  C 289.11 255.79 288.49 250.20 288.46 246.61
  A 0.74 0.74 0.0 0 1 289.18 245.86
  Q 289.28 245.86 289.52 246.21
  C 296.91 256.74 305.85 263.32 318.90 272.67
  C 320.77 274.01 321.79 274.04 324.00 273.93
  C 341.65 273.08 360.57 270.40 373.00 256.99
  C 384.89 244.16 392.20 223.83 391.60 206.12
  A 0.47 0.47 0.0 0 0 390.96 205.70
  Q 390.41 205.92 390.09 206.63
  Q 384.14 220.22 370.44 225.86
  Q 353.54 232.80 335.37 234.68
  C 332.50 234.98 328.09 236.55 326.33 233.58
  C 316.95 217.75 307.80 200.79 303.08 182.94
  Q 302.72 181.54 301.27 181.54
  L 281.16 181.47
  Q 280.66 181.47 280.32 181.84
  L 192.08 275.50
  A 2.14 2.13 49.1 0 0 191.89 278.20
  L 197.46 286.11"
/>
<path stroke="#ebe3d9" vector-effect="non-scaling-stroke" d="
  M 284.03 303.12
  L 296.97 303.43"
/>
<path stroke="#f8f5f1" vector-effect="non-scaling-stroke" d="
  M 300.96 303.74
  L 296.63 303.64
  A 0.70 0.69 -7.1 0 0 295.94 304.52
  Q 296.64 307.08 299.25 307.64
  Q 301.97 308.23 304.74 308.40
  C 311.45 308.82 318.10 309.94 324.78 310.67
  C 327.80 310.99 331.50 312.25 334.15 313.71
  Q 334.62 313.97 335.20 313.86
  Q 335.75 313.77 336.19 314.11
  Q 337.19 314.89 338.51 315.06
  Q 338.98 315.13 339.36 315.41
  Q 341.28 316.84 342.42 318.96
  Q 342.67 319.42 343.11 319.70
  C 344.77 320.76 346.96 324.34 348.23 326.04
  C 350.65 329.29 352.74 333.20 355.09 336.80
  C 356.41 338.83 357.27 341.31 358.63 343.46
  Q 360.50 346.39 361.37 348.35
  Q 362.57 351.02 363.98 353.60
  C 365.33 356.09 367.81 358.01 369.10 361.02
  Q 369.31 361.52 369.81 361.75
  Q 371.36 362.47 372.52 363.69
  Q 372.83 364.02 373.28 363.96
  L 374.96 363.75"
/>
<path stroke="#fccb7d" vector-effect="non-scaling-stroke" d="
  M 330.89 607.43
  Q 330.41 607.02 330.84 605.75
  Q 331.16 604.81 331.21 604.19
  Q 333.20 581.98 334.49 559.73
  C 336.28 528.95 338.67 498.20 340.49 467.42
  C 340.91 460.24 342.00 450.35 342.23 441.75"
/>
<path stroke="#fccb7d" vector-effect="non-scaling-stroke" d="
  M 366.65 526.06
  Q 366.67 524.54 367.92 521.02
  C 368.65 518.99 368.34 515.14 368.73 512.69
  Q 370.81 499.65 371.81 491.99
  Q 373.75 477.13 377.03 450.41
  C 377.57 446.01 378.08 441.89 379.28 437.59
  C 380.15 434.45 380.39 430.78 381.02 427.86
  Q 381.86 423.98 382.66 417.75
  Q 382.78 416.85 383.74 414.06
  C 384.65 411.44 385.55 405.53 384.29 403.03"
/>
<path stroke="#fccb7d" vector-effect="non-scaling-stroke" d="
  M 378.31 389.51
  L 376.40 389.43
  Q 375.98 389.41 375.88 389.01
  C 375.36 386.91 374.04 386.04 373.11 384.14
  Q 372.78 383.47 372.12 383.33
  Q 371.65 383.23 371.32 382.89
  Q 361.23 372.40 352.35 360.87
  A 1.19 1.19 0.0 0 0 350.81 360.56
  Q 347.61 362.40 343.95 363.62
  C 323.02 370.57 299.61 371.24 279.28 361.89"
/>
<path stroke="#eeb57a" vector-effect="non-scaling-stroke" d="
  M 279.28 361.89
  Q 276.83 360.48 274.49 359.08
  C 270.23 356.53 266.33 353.16 262.35 350.15
  Q 256.96 346.06 240.36 329.40
  Q 218.97 307.93 197.46 286.11"
/>
<path stroke="#ee8c0b" vector-effect="non-scaling-stroke" d="
  M 279.28 361.89
  Q 273.77 360.80 269.87 357.13
  Q 268.45 355.80 267.35 355.62
  Q 267.21 355.60 267.16 355.53
  Q 267.07 355.43 267.07 355.25
  Q 267.08 354.95 266.86 354.75
  Q 265.61 353.56 262.24 351.11
  Q 257.88 347.93 244.06 334.19
  Q 234.65 324.84 225.05 315.69
  C 224.11 314.80 223.06 314.28 222.01 313.49
  Q 221.43 313.05 220.84 313.47
  Q 220.69 313.58 220.41 313.58
  A 1.15 0.82 56.7 0 0 220.34 315.46
  C 222.43 317.09 221.91 319.63 222.81 321.49
  Q 223.99 323.93 225.47 326.22
  Q 226.22 327.39 227.27 331.24
  Q 228.15 334.44 230.66 339.37
  Q 232.74 343.45 234.44 347.30
  C 236.79 352.64 240.04 358.34 242.23 362.86
  C 247.14 373.02 252.02 384.92 260.53 391.21
  Q 275.02 401.91 293.08 412.13
  C 297.21 414.47 301.23 413.06 306.00 411.51
  C 314.45 408.76 322.78 405.51 331.32 403.10
  Q 334.43 402.23 337.42 400.95
  C 338.63 400.43 339.92 400.59 341.18 400.72
  Q 341.58 400.76 341.93 400.55
  L 343.96 399.36
  Q 344.42 399.09 344.75 399.50
  Q 344.88 399.66 344.88 399.86
  Q 344.90 400.37 344.43 400.57
  L 335.90 404.29
  Q 335.51 404.46 335.23 404.77
  Q 334.81 405.22 334.20 405.16
  Q 333.70 405.11 333.29 405.41
  Q 331.68 406.63 329.73 407.12
  Q 329.19 407.26 328.80 407.64
  Q 328.00 408.42 326.94 408.37
  Q 326.50 408.35 326.14 408.61
  Q 324.43 409.87 322.39 410.30
  C 320.87 410.62 320.34 411.50 319.25 411.87
  Q 314.44 413.47 309.95 415.81
  C 308.44 416.60 306.64 416.99 305.02 417.72
  C 302.14 419.03 299.29 419.32 296.46 420.49
  Q 293.17 421.86 295.18 422.59"
/>
<path stroke="#7e8285" vector-effect="non-scaling-stroke" d="
  M 469.05 315.40
  Q 455.85 305.81 441.84 297.32
  C 440.76 296.67 439.01 296.10 437.99 296.46
  C 431.17 298.88 424.85 298.96 417.82 299.79"
/>
<path stroke="#81817f" vector-effect="non-scaling-stroke" d="
  M 417.82 299.79
  L 404.21 299.80
  Q 403.32 299.80 403.05 300.64
  C 397.96 316.17 393.31 331.68 387.58 346.84
  Q 387.35 347.46 387.60 348.08
  L 391.42 357.43"
/>
<path stroke="#70706d" vector-effect="non-scaling-stroke" d="
  M 391.42 357.43
  L 392.23 359.05"
/>
<path stroke="#815811" vector-effect="non-scaling-stroke" d="
  M 392.23 359.05
  L 404.70 393.87
  Q 404.95 394.58 405.67 394.83
  C 419.96 399.67 434.39 403.56 448.84 407.39
  Q 449.88 407.66 450.64 406.91
  C 460.60 397.11 471.05 387.50 480.56 377.93
  Q 495.48 362.92 510.63 348.16
  C 513.86 345.01 517.80 341.83 521.25 338.62"
/>
<path stroke="#81817f" vector-effect="non-scaling-stroke" d="
  M 521.25 338.62
  Q 522.72 338.29 522.67 337.52
  Q 522.64 336.94 521.85 335.46
  Q 510.53 314.23 498.02 292.18
  Q 497.32 290.94 495.91 291.08
  C 484.06 292.26 472.53 292.85 460.70 291.29
  A 0.70 0.69 76.3 0 0 460.04 292.38
  Q 465.26 299.89 470.16 307.26
  C 472.27 310.44 476.05 315.08 478.34 319.41
  Q 479.88 322.32 477.11 320.55
  L 469.05 315.40"
/>
<path stroke="#fccb7d" vector-effect="non-scaling-stroke" d="
  M 521.25 338.62
  C 510.73 336.67 501.26 336.02 492.03 332.61
  C 489.64 331.73 488.18 332.15 486.46 334.10
  Q 474.82 347.32 460.84 358.06
  C 442.40 372.24 420.83 367.57 400.71 361.52"
/>
<path stroke="#ebe3d9" vector-effect="non-scaling-stroke" d="
  M 400.71 361.52
  Q 399.07 359.96 397.07 359.77
  Q 396.61 359.73 396.37 359.33
  C 395.44 357.79 393.12 357.76 391.42 357.43"
/>
<path stroke="#f8f5f1" vector-effect="non-scaling-stroke" d="
  M 417.82 299.79
  L 410.55 301.19
  Q 410.26 301.25 410.31 301.54
  Q 410.48 302.47 411.22 302.39
  A 0.36 0.36 0.0 0 1 411.62 302.75
  L 411.62 303.24
  Q 411.62 303.60 411.98 303.63
  Q 412.34 303.67 412.63 303.48
  Q 413.11 303.19 413.64 303.39
  Q 418.96 305.40 424.22 303.93
  Q 426.95 303.16 428.90 303.13
  Q 432.62 303.07 436.33 302.59
  Q 439.09 302.23 440.19 302.41
  C 442.76 302.83 443.89 305.06 445.82 306.33
  Q 447.95 307.74 448.00 307.78
  C 449.59 309.17 450.86 310.79 452.95 311.47
  C 455.35 312.25 456.23 314.11 458.33 315.02
  C 461.19 316.24 463.06 317.28 465.50 317.87
  Q 465.73 317.93 466.07 318.34
  Q 466.36 318.68 466.77 318.48
  L 468.71 317.50
  Q 469.17 317.27 469.14 316.75
  L 469.05 315.40"
/>
<path stroke="#ebba6a" vector-effect="non-scaling-stroke" d="
  M 392.23 359.05
  L 400.71 361.52"
/>
<path stroke="#7e8285" vector-effect="non-scaling-stroke" d="
  M 378.97 331.62
  L 380.35 302.50
  Q 380.42 301.00 378.93 301.12
  C 373.41 301.54 366.21 302.02 360.78 300.44
  A 0.59 0.59 0.0 0 0 360.05 301.18
  Q 360.25 301.82 360.74 302.52
  C 366.92 311.33 371.55 321.28 376.91 330.61
  Q 377.51 331.66 378.09 332.06
  Q 378.93 332.64 378.97 331.62"
/>
<path stroke="#815811" vector-effect="non-scaling-stroke" d="
  M 334.63 630.85
  Q 328.61 630.00 322.86 628.16
  Q 322.78 628.13 322.75 628.22
  L 322.66 628.45
  A 0.36 0.35 -66.9 0 0 322.84 628.90
  C 341.95 637.92 359.70 647.89 376.62 660.46
  A 1.05 1.03 -43.2 0 0 377.81 660.49
  Q 384.32 656.24 390.56 651.85
  Q 408.15 639.49 425.98 630.71
  Q 430.98 628.25 425.49 629.21
  C 416.75 630.73 407.21 632.16 398.46 632.85
  Q 366.47 635.35 334.63 630.85"
/>
<path stroke="#81817f" vector-effect="non-scaling-stroke" d="
  M 292.63 152.05
  C 308.72 153.85 325.05 154.85 341.16 152.87
  C 344.75 152.43 347.01 151.28 349.76 149.23
  A 0.66 0.66 0.0 0 0 349.75 148.17
  C 347.03 146.27 344.47 145.43 340.95 145.73
  Q 327.01 146.91 313.14 148.80
  C 306.41 149.72 299.52 150.07 292.69 150.76
  A 0.56 0.54 17.9 0 0 292.34 150.93
  Q 291.42 151.92 292.63 152.05"
/>
<path stroke="#815811" vector-effect="non-scaling-stroke" d="
  M 459.33 259.15
  Q 469.17 261.46 479.27 260.97
  A 0.83 0.83 0.0 0 0 480.06 260.16
  L 480.07 259.83
  A 0.37 0.37 0.0 0 0 479.74 259.45
  L 459.94 257.47
  Q 458.95 257.37 458.97 258.36
  L 458.97 258.70
  A 0.48 0.46 -84.6 0 0 459.33 259.15"
/>
<path stroke="#815811" vector-effect="non-scaling-stroke" d="
  M 396.97 261.33
  L 396.95 263.31
  A 0.28 0.28 0.0 0 0 397.23 263.59
  L 401.65 263.64
  A 18.76 1.14 0.7 0 0 420.42 262.73
  L 420.42 262.47
  A 18.76 1.14 0.7 0 0 401.68 261.10
  L 397.26 261.05
  A 0.28 0.28 0.0 0 0 396.97 261.33"
/>
</g>
<path fill="#dad1c6" d="
  M 182.63 0.00
  L 567.75 0.00
  Q 587.48 1.05 601.48 4.00
  C 680.29 20.65 740.98 87.78 748.59 168.76
  Q 749.31 176.44 750.00 184.13
  L 750.00 569.99
  C 745.50 653.05 690.10 722.33 609.53 744.06
  C 595.75 747.78 581.33 749.07 567.12 750.00
  L 182.25 750.00
  Q 173.92 749.48 165.62 748.67
  C 130.85 745.28 96.61 730.34 69.63 708.37
  C 30.13 676.21 5.28 630.10 0.83 579.24
  Q 0.45 574.93 0.00 570.63
  L 0.00 173.25
  Q 1.40 161.23 2.26 156.25
  C 13.34 92.11 56.97 37.80 117.41 13.49
  C 138.77 4.90 158.90 1.27 182.63 0.00
  Z
  M 258.17 127.24
  Q 255.44 127.56 253.20 128.43
  C 239.57 133.72 226.64 141.21 214.07 148.62
  Q 204.26 154.40 192.65 163.41
  Q 188.68 166.48 186.28 169.44
  Q 185.66 170.21 185.16 170.60
  Q 183.22 172.13 183.39 170.49
  Q 187.23 166.27 190.64 161.79
  C 195.77 155.05 201.71 148.86 206.46 141.62
  A 0.53 0.53 0.0 0 0 205.98 140.80
  Q 205.65 140.83 205.20 141.19
  Q 186.95 155.93 169.33 171.50
  Q 169.37 170.61 169.87 169.75
  Q 170.16 169.26 169.60 169.22
  C 168.01 169.09 166.87 170.60 165.68 171.47
  Q 161.39 174.36 158.88 178.00
  Q 157.90 179.42 159.21 180.10
  L 133.03 203.13
  A 1.27 1.26 -20.9 0 0 132.60 204.08
  L 132.69 226.59
  Q 132.04 228.72 132.04 231.50
  Q 132.02 305.63 132.04 379.75
  Q 132.04 384.11 131.77 388.02
  A 3.65 3.62 -67.6 0 0 133.00 391.00
  C 147.83 403.98 158.64 415.72 173.85 433.65
  Q 183.49 445.01 193.03 460.24
  C 197.60 467.53 199.42 470.13 198.22 478.24
  C 196.59 489.25 194.03 498.98 192.47 506.72
  Q 187.37 532.16 182.28 557.61
  C 182.13 558.38 181.60 558.73 181.56 559.62
  Q 181.51 560.78 181.50 560.87
  Q 178.02 580.37 174.10 599.80
  Q 173.90 600.83 173.83 601.97
  Q 173.81 602.45 174.26 602.59
  Q 174.70 602.72 175.00 602.25
  C 176.62 599.72 175.30 596.53 179.41 595.37
  L 180.48 595.62
  Q 179.93 595.84 179.38 596.02
  Q 179.05 596.13 178.92 596.32
  Q 178.77 596.54 178.78 596.74
  Q 178.79 597.27 179.33 597.34
  C 187.05 598.27 195.29 598.14 202.42 599.13
  Q 210.98 600.32 215.25 601.12
  C 220.24 602.06 225.34 604.10 230.43 605.46
  C 233.68 606.32 236.33 607.22 240.09 608.22
  Q 242.02 608.72 244.26 609.84
  C 245.63 610.52 247.91 610.97 249.54 611.68
  Q 254.45 613.82 259.36 615.97
  Q 263.12 617.61 267.49 620.49
  Q 273.99 624.78 281.01 628.12
  Q 284.54 629.79 288.34 632.31
  Q 292.60 635.14 297.23 637.32
  C 299.96 638.61 302.30 640.30 304.89 641.80
  C 307.00 643.02 309.47 643.52 311.79 644.65
  Q 314.22 645.83 316.88 646.96
  Q 319.57 648.10 321.99 649.83
  Q 322.43 650.15 322.96 650.19
  Q 323.66 650.24 323.92 650.85
  Q 324.11 651.30 324.53 651.55
  L 334.73 657.55
  Q 334.41 658.17 333.70 657.69
  Q 333.30 657.43 332.82 657.38
  L 329.62 657.05
  Q 328.99 656.98 329.60 657.57
  Q 330.01 657.97 329.78 658.77
  C 322.76 655.09 315.92 649.73 308.89 646.88
  Q 308.12 646.57 307.65 646.88
  Q 307.23 647.16 307.61 647.49
  C 309.88 649.45 312.63 650.75 314.81 652.42
  Q 320.00 656.38 322.87 657.89
  C 324.96 658.98 326.30 660.64 327.76 661.65
  C 343.20 672.29 356.88 685.75 370.20 698.91
  C 372.60 701.28 374.72 704.02 377.03 706.66
  A 1.36 1.36 0.0 0 0 379.13 706.59
  C 381.42 703.60 383.73 700.61 386.52 697.99
  C 391.06 693.74 395.86 689.72 400.28 685.44
  C 410.16 675.87 420.79 667.60 431.05 658.52
  C 433.37 656.46 437.00 654.37 438.79 651.95
  Q 440.73 649.33 437.96 650.93
  L 432.90 653.86
  Q 432.28 654.22 432.64 653.60
  Q 433.31 652.47 434.53 651.89
  Q 434.63 651.84 434.63 651.73
  Q 434.63 651.61 434.64 651.48
  Q 434.64 651.37 434.50 651.37
  L 433.53 651.37
  A 0.31 0.31 0.0 0 1 433.48 650.75
  Q 433.86 650.69 433.88 650.51
  Q 433.91 650.19 433.63 650.35
  Q 433.33 650.53 432.91 650.61
  A 0.23 0.22 -66.5 0 1 432.75 650.20
  L 440.57 645.17
  Q 440.95 644.92 441.15 644.51
  Q 441.92 642.89 443.00 642.61
  Q 448.69 641.15 453.11 637.94
  L 459.94 634.34
  Q 461.31 634.10 462.12 632.91
  A 1.34 1.30 -78.3 0 1 462.93 632.36
  Q 464.86 631.93 466.08 630.73
  Q 474.92 625.39 477.77 624.17
  Q 482.61 622.09 486.68 618.82
  Q 488.87 617.06 491.07 616.27
  Q 501.17 612.62 511.13 608.65
  Q 517.78 605.99 534.75 602.88
  C 537.85 602.31 540.66 601.31 543.80 600.93
  C 548.70 600.34 553.35 598.84 558.13 598.42
  Q 562.02 598.07 565.89 597.51
  C 567.45 597.29 568.84 596.68 570.36 596.21
  A 0.48 0.46 71.5 0 0 570.66 595.59
  Q 570.57 595.36 570.24 595.29
  Q 569.35 595.10 568.44 594.96
  L 569.35 594.33
  C 573.44 594.77 574.32 599.96 575.38 603.13
  Q 575.59 603.77 576.42 603.61
  Q 576.81 603.54 576.85 603.14
  C 577.03 601.46 576.41 600.03 576.30 598.63
  C 575.90 593.54 575.89 588.15 574.53 583.21
  C 573.25 578.55 573.76 573.62 572.83 568.80
  C 571.53 562.10 570.29 555.52 569.69 548.71
  C 569.37 545.03 568.43 541.46 568.14 537.80
  Q 567.96 535.60 567.67 533.40
  Q 564.58 509.94 561.46 486.48
  C 560.81 481.56 559.78 472.56 562.23 468.42
  C 576.92 443.63 594.18 423.07 614.05 401.97
  C 618.13 397.63 622.75 393.58 627.20 389.46
  C 630.34 386.55 629.32 380.39 629.31 376.50
  Q 629.10 301.46 629.32 227.04
  L 629.45 204.30
  Q 629.46 203.41 628.77 202.86
  Q 622.35 197.71 615.91 191.88
  Q 586.37 165.13 555.21 140.30
  Q 554.48 139.72 554.05 139.94
  A 0.46 0.45 -28.7 0 0 553.86 140.58
  C 558.23 148.08 563.73 153.77 569.02 160.75
  Q 562.74 157.66 557.75 153.22
  A 10.36 10.27 -11.8 0 0 555.00 151.44
  C 551.35 149.84 547.39 146.77 543.81 144.82
  C 535.16 140.09 526.62 135.17 517.78 130.80
  Q 502.27 123.13 486.59 115.81
  Q 479.75 112.61 472.53 109.64
  Q 473.23 109.45 472.17 107.51
  Q 471.72 106.70 470.91 105.84
  Q 468.33 103.11 465.86 100.29
  Q 465.17 99.51 464.10 98.79
  Q 463.13 98.13 462.25 97.36
  C 461.23 96.47 459.29 95.88 458.60 94.73
  Q 458.36 94.32 457.93 94.11
  Q 456.58 93.44 454.98 91.65
  C 451.57 87.84 448.00 89.50 443.91 89.75
  C 436.91 90.17 429.66 91.24 423.02 91.64
  Q 412.50 92.29 401.93 93.38
  Q 403.01 92.45 402.93 91.41
  Q 402.88 90.88 402.36 90.80
  C 400.94 90.57 399.63 90.21 398.20 90.24
  Q 386.84 90.45 375.56 91.47
  Q 374.85 91.53 374.29 91.87
  Q 373.09 92.60 373.30 92.82
  Q 364.34 91.25 354.75 91.08
  Q 346.93 90.95 339.11 90.64
  Q 338.37 90.61 336.70 90.24
  C 332.39 89.31 327.74 89.25 323.76 89.14
  Q 317.51 88.96 313.29 88.46
  Q 307.54 87.78 301.77 87.42
  C 298.09 87.19 293.81 86.53 289.78 86.38
  Q 289.30 86.37 288.91 86.63
  C 288.07 87.19 287.86 87.54 286.81 87.71
  Q 285.08 87.98 283.80 88.43
  A 8.32 8.29 -74.0 0 0 281.47 89.73
  Q 274.25 95.50 267.18 101.93
  C 263.22 105.53 261.22 107.04 260.64 111.88
  Q 260.08 116.61 258.17 127.24
  Z"
/>
<path fill="#f5f6f6" d="
  M 373.30 92.82
  Q 373.80 95.17 376.12 95.11
  Q 389.09 94.82 401.93 93.38
  Q 412.50 92.29 423.02 91.64
  C 429.66 91.24 436.91 90.17 443.91 89.75
  C 448.00 89.50 451.57 87.84 454.98 91.65
  Q 456.58 93.44 457.93 94.11
  Q 458.36 94.32 458.60 94.73
  C 459.29 95.88 461.23 96.47 462.25 97.36
  Q 463.13 98.13 464.10 98.79
  Q 465.17 99.51 465.86 100.29
  Q 468.33 103.11 470.91 105.84
  Q 471.72 106.70 472.17 107.51
  Q 473.23 109.45 472.53 109.64
  L 472.32 142.11
  A 2.34 2.34 0.0 0 0 473.80 144.30
  C 475.65 145.03 478.00 144.83 479.46 144.97
  C 490.91 146.06 502.22 148.03 513.64 149.14
  Q 519.46 149.71 523.54 153.93
  Q 528.74 159.32 533.73 165.90
  C 537.54 170.92 539.35 173.02 538.03 179.00
  Q 532.59 203.69 524.38 248.28
  Q 523.26 254.33 522.59 260.09
  Q 522.37 262.00 523.03 263.81
  Q 532.52 289.68 542.10 315.96
  C 545.84 326.23 549.48 337.15 552.43 347.81
  A 2.14 2.13 61.6 0 1 551.79 349.97
  C 545.87 355.25 540.66 361.54 535.20 367.38
  C 522.89 380.56 511.46 394.35 498.77 407.23
  Q 494.00 412.07 490.74 415.74
  C 487.09 419.84 483.66 423.97 479.89 427.99
  C 477.91 430.11 479.61 438.05 479.81 441.00
  Q 485.22 519.69 490.40 598.96
  L 484.78 601.61
  Q 483.71 602.11 483.61 600.93
  C 478.71 543.43 474.12 485.80 469.98 428.14
  Q 469.80 425.55 471.36 423.87
  C 491.98 401.59 513.61 380.21 533.74 357.48
  Q 538.85 351.71 544.07 346.84
  A 1.88 1.88 0.0 0 0 544.55 344.82
  Q 532.62 312.54 520.90 281.37
  Q 518.85 275.92 516.43 270.65
  C 514.41 266.23 516.48 263.97 517.24 260.50
  Q 526.30 219.54 535.03 178.50
  C 535.47 176.44 535.61 174.91 534.24 173.09
  Q 528.03 164.92 521.55 156.97
  Q 519.03 153.87 516.27 153.51
  C 509.57 152.64 502.74 151.48 496.21 150.78
  Q 482.71 149.35 469.09 147.72
  Q 468.70 147.67 468.71 147.28
  L 469.06 108.89
  A 2.61 2.60 -68.4 0 0 468.23 106.96
  L 452.61 92.43
  A 2.06 2.06 0.0 0 0 451.03 91.89
  Q 417.76 94.59 384.48 98.53
  Q 379.11 99.17 373.68 99.62
  A 1.06 1.04 -13.3 0 1 372.62 98.98
  L 371.46 96.15
  A 2.13 2.13 0.0 0 0 369.62 94.84
  Q 359.72 94.27 350.02 93.42
  C 330.50 91.71 311.02 90.40 291.50 89.01
  C 289.44 88.86 288.13 88.98 286.52 90.47
  Q 277.70 98.64 268.30 106.17
  C 264.86 108.92 263.19 111.29 262.93 115.49
  C 261.52 138.17 260.34 160.78 258.09 183.40
  C 257.59 188.41 251.80 193.94 248.42 197.43
  Q 211.08 235.93 173.62 274.16
  A 1.83 1.83 0.0 0 0 173.21 276.06
  C 178.11 289.46 183.85 303.75 188.51 316.11
  Q 203.27 355.30 218.89 394.16
  Q 219.23 395.01 219.96 395.56
  Q 249.82 418.06 278.74 441.76
  C 280.61 443.30 283.20 444.96 282.98 447.75
  Q 278.50 503.12 274.48 558.53
  C 273.49 572.22 272.10 586.96 271.01 601.22
  A 0.83 0.83 0.0 0 1 269.89 601.94
  L 264.54 599.96
  C 264.60 595.84 265.30 591.20 265.51 587.67
  Q 267.85 548.43 270.74 509.22
  C 272.18 489.78 273.12 470.24 274.61 450.75
  C 274.74 449.00 274.91 447.45 273.44 446.31
  Q 261.46 437.01 240.88 421.90
  C 233.10 416.19 224.90 409.71 216.83 403.69
  C 211.79 399.93 210.13 392.98 207.96 387.32
  C 194.49 352.28 181.18 317.23 168.92 281.74
  C 167.95 278.96 164.72 275.42 167.49 272.60
  C 175.05 264.91 182.44 257.09 189.97 249.39
  Q 205.77 233.23 221.45 216.94
  Q 234.63 203.25 248.53 190.29
  C 251.84 187.21 253.48 184.37 253.88 179.58
  C 255.04 165.58 256.49 151.58 257.36 137.58
  Q 257.68 132.43 258.17 127.24
  Q 260.08 116.61 260.64 111.88
  C 261.22 107.04 263.22 105.53 267.18 101.93
  Q 274.25 95.50 281.47 89.73
  A 8.32 8.29 -74.0 0 1 283.80 88.43
  Q 285.08 87.98 286.81 87.71
  C 287.86 87.54 288.07 87.19 288.91 86.63
  Q 289.30 86.37 289.78 86.38
  C 293.81 86.53 298.09 87.19 301.77 87.42
  Q 307.54 87.78 313.29 88.46
  Q 317.51 88.96 323.76 89.14
  C 327.74 89.25 332.39 89.31 336.70 90.24
  Q 338.37 90.61 339.11 90.64
  Q 346.93 90.95 354.75 91.08
  Q 364.34 91.25 373.30 92.82
  Z"
/>
<path fill="#060e13" d="
  M 490.40 598.96
  Q 517.80 588.04 546.23 580.01
  A 1.70 1.69 82.1 0 0 547.46 578.38
  Q 547.41 515.37 547.58 451.75
  Q 547.63 435.75 547.19 419.77
  Q 547.18 419.60 547.36 419.58
  L 547.37 419.58
  Q 547.54 419.57 547.56 419.74
  L 569.35 594.33
  L 568.44 594.96
  C 561.49 595.88 553.81 596.54 547.55 597.60
  Q 520.86 602.13 492.99 613.26
  Q 488.20 615.17 485.93 616.32
  C 484.16 617.22 483.34 619.45 482.02 620.06
  Q 466.42 627.26 451.31 635.03
  C 426.10 648.97 401.51 663.95 379.30 682.41
  A 1.91 1.91 0.0 0 1 376.90 682.45
  C 366.00 674.05 354.80 665.59 343.21 658.32
  C 328.63 649.18 313.32 641.52 298.21 633.56
  C 291.79 630.18 285.39 627.32 278.86 624.40
  C 272.96 621.76 267.73 617.15 261.77 614.60
  C 236.80 603.94 209.62 596.35 180.48 595.62
  L 179.41 595.37
  Q 183.54 577.49 185.43 567.00
  Q 194.91 514.45 207.14 462.49
  C 211.18 445.35 214.59 428.62 218.18 411.67
  Q 218.24 411.41 218.50 411.46
  L 218.75 411.50
  Q 218.77 411.50 218.77 411.53
  Q 216.50 428.45 215.15 445.49
  Q 214.29 456.36 211.74 478.50
  Q 208.48 506.80 202.70 568.02
  Q 202.16 573.72 201.91 579.03
  A 1.46 1.46 0.0 0 0 203.03 580.51
  Q 218.64 584.26 233.50 589.03
  Q 244.28 592.49 264.54 599.96
  L 269.89 601.94
  A 0.83 0.83 0.0 0 0 271.01 601.22
  C 272.10 586.96 273.49 572.22 274.48 558.53
  Q 278.50 503.12 282.98 447.75
  C 283.20 444.96 280.61 443.30 278.74 441.76
  Q 249.82 418.06 219.96 395.56
  Q 219.23 395.01 218.89 394.16
  Q 203.27 355.30 188.51 316.11
  C 183.85 303.75 178.11 289.46 173.21 276.06
  A 1.83 1.83 0.0 0 1 173.62 274.16
  Q 211.08 235.93 248.42 197.43
  C 251.80 193.94 257.59 188.41 258.09 183.40
  C 260.34 160.78 261.52 138.17 262.93 115.49
  C 263.19 111.29 264.86 108.92 268.30 106.17
  Q 277.70 98.64 286.52 90.47
  C 288.13 88.98 289.44 88.86 291.50 89.01
  C 311.02 90.40 330.50 91.71 350.02 93.42
  Q 359.72 94.27 369.62 94.84
  A 2.13 2.13 0.0 0 1 371.46 96.15
  L 372.62 98.98
  A 1.06 1.04 -13.3 0 0 373.68 99.62
  Q 379.11 99.17 384.48 98.53
  Q 417.76 94.59 451.03 91.89
  A 2.06 2.06 0.0 0 1 452.61 92.43
  L 468.23 106.96
  A 2.61 2.60 -68.4 0 1 469.06 108.89
  L 468.71 147.28
  Q 468.70 147.67 469.09 147.72
  Q 482.71 149.35 496.21 150.78
  C 502.74 151.48 509.57 152.64 516.27 153.51
  Q 519.03 153.87 521.55 156.97
  Q 528.03 164.92 534.24 173.09
  C 535.61 174.91 535.47 176.44 535.03 178.50
  Q 526.30 219.54 517.24 260.50
  C 516.48 263.97 514.41 266.23 516.43 270.65
  Q 518.85 275.92 520.90 281.37
  Q 532.62 312.54 544.55 344.82
  A 1.88 1.88 0.0 0 1 544.07 346.84
  Q 538.85 351.71 533.74 357.48
  C 513.61 380.21 491.98 401.59 471.36 423.87
  Q 469.80 425.55 469.98 428.14
  C 474.12 485.80 478.71 543.43 483.61 600.93
  Q 483.71 602.11 484.78 601.61
  L 490.40 598.96
  Z
  M 292.31 101.56
  C 289.77 103.59 279.84 111.72 279.98 115.00
  C 280.65 131.47 279.50 148.17 279.05 164.60
  Q 279.02 165.45 279.87 165.44
  Q 318.80 165.00 357.58 161.56
  Q 358.46 161.48 358.45 160.59
  L 357.96 109.27
  Q 357.96 108.79 357.48 108.71
  C 336.25 105.44 314.85 103.43 293.45 101.22
  A 1.63 1.57 -60.6 0 0 292.31 101.56
  Z
  M 401.29 246.80
  C 397.99 252.03 394.89 257.19 390.76 261.77
  Q 387.80 265.05 384.76 268.27
  A 1.06 1.06 0.0 0 0 385.13 269.98
  C 396.60 274.76 412.12 277.54 424.36 274.55
  Q 432.06 272.67 432.80 264.77
  Q 433.41 258.17 434.46 252.29
  L 447.84 168.36
  A 1.51 1.51 0.0 0 0 446.81 166.68
  Q 443.75 165.70 440.75 163.76
  C 437.47 161.64 434.78 160.83 431.25 160.61
  Q 416.97 159.73 396.50 159.25
  Q 393.38 159.18 389.61 158.31
  Q 389.17 158.20 389.03 157.78
  Q 388.77 157.02 389.50 156.95
  C 409.60 154.91 424.87 153.71 439.49 150.33
  Q 441.18 149.94 442.26 151.29
  L 447.65 157.96
  A 0.58 0.58 0.0 0 0 448.65 157.78
  Q 448.83 157.24 448.94 156.49
  Q 451.52 138.46 452.21 120.26
  Q 452.29 118.08 451.58 117.21
  Q 447.22 111.81 442.23 107.27
  A 2.96 2.94 65.1 0 0 440.11 106.49
  Q 437.92 106.58 435.36 106.90
  Q 408.12 110.25 380.95 114.12
  C 379.73 114.30 378.42 114.21 377.17 114.27
  A 0.90 0.90 0.0 0 0 376.31 115.17
  L 376.41 161.35
  Q 376.41 162.14 377.20 162.22
  Q 382.98 162.80 388.75 164.18
  C 393.08 165.22 394.70 166.49 396.31 170.46
  Q 403.31 187.68 404.55 192.23
  C 409.09 208.92 409.51 231.04 401.29 246.80
  Z
  M 454.94 244.79
  Q 453.10 254.77 449.80 264.73
  A 1.46 1.46 0.0 0 0 450.71 266.57
  C 460.67 269.97 489.59 277.51 495.35 263.27
  Q 497.24 258.57 498.57 252.29
  Q 503.39 236.47 507.62 218.26
  Q 507.94 216.85 508.02 215.68
  Q 508.06 215.17 507.61 214.91
  C 496.03 208.27 484.02 206.85 471.17 203.77
  A 0.61 0.61 0.0 0 1 470.75 202.93
  Q 471.02 202.29 472.01 202.32
  Q 485.77 202.66 499.54 201.98
  C 504.16 201.76 506.29 205.35 508.49 208.72
  A 0.69 0.69 0.0 0 0 509.73 208.55
  L 517.95 182.47
  A 3.45 3.43 -54.3 0 0 517.46 179.44
  C 514.73 175.63 508.38 165.43 503.57 164.85
  C 491.93 163.46 480.23 162.51 468.69 160.43
  A 1.44 1.44 0.0 0 0 467.03 161.56
  Q 466.79 162.76 466.59 164.26
  C 462.92 191.11 459.87 217.17 454.94 244.79
  Z
  M 334.09 176.88
  Q 332.76 177.06 331.49 177.58
  Q 331.04 177.77 331.00 178.25
  Q 330.81 181.24 331.58 183.45
  C 335.69 195.16 341.16 208.45 350.59 217.90
  A 1.52 1.51 -29.4 0 0 352.05 218.30
  C 360.64 216.08 370.37 213.16 377.96 208.44
  C 381.51 206.24 382.98 202.45 384.09 198.62
  C 386.28 191.13 376.60 174.30 368.26 173.71
  Q 362.42 173.30 352.24 174.55
  Q 343.16 175.67 334.09 176.88
  Z
  M 335.39 224.25
  L 344.29 220.93
  A 0.55 0.55 0.0 0 0 344.47 220.00
  C 332.90 209.75 326.83 194.51 319.35 181.39
  Q 318.35 179.63 316.33 179.81
  L 313.25 180.09
  Q 311.20 180.28 311.95 182.20
  C 317.28 195.99 323.81 210.33 332.52 223.33
  A 2.42 2.42 0.0 0 0 335.39 224.25
  Z
  M 197.46 286.11
  Q 200.45 292.20 203.55 298.09
  C 217.78 325.15 230.38 353.60 242.31 381.75
  Q 244.33 386.52 246.02 388.22
  C 251.59 393.80 261.01 399.90 266.31 403.95
  Q 278.94 413.60 291.86 422.88
  Q 293.16 423.81 295.18 422.59
  Q 300.25 420.96 302.01 420.24
  Q 333.60 407.45 364.88 393.89
  Q 371.56 391.00 378.31 389.51
  C 382.13 391.56 383.35 398.65 384.29 403.03
  Q 384.47 406.45 383.39 408.92
  Q 380.71 415.05 379.63 419.77
  C 378.38 425.25 376.58 430.61 375.92 436.20
  Q 375.63 438.67 374.72 436.36
  Q 373.14 432.35 370.81 427.92
  Q 370.46 427.27 369.99 427.20
  A 0.63 0.63 0.0 0 0 369.28 427.79
  C 369.01 431.87 368.58 436.03 368.56 440.08
  Q 368.41 489.63 367.69 503.00
  Q 367.08 514.51 366.65 526.06
  Q 364.95 549.01 363.37 572.00
  Q 363.30 573.02 362.57 573.02
  A 0.81 0.81 0.0 0 1 361.76 572.27
  C 361.08 562.93 360.81 552.99 360.13 544.26
  C 358.35 521.44 356.83 498.60 354.91 475.79
  Q 353.41 457.90 352.26 439.95
  A 0.75 0.75 0.0 0 0 351.44 439.25
  Q 346.61 439.75 342.23 441.75
  Q 332.32 444.12 321.82 444.77
  A 1.70 1.69 -0.4 0 0 320.24 446.37
  L 312.38 605.38
  A 0.73 0.73 0.0 0 0 313.05 606.14
  L 330.89 607.43
  Q 370.55 609.92 410.03 607.71
  C 414.74 607.44 420.58 606.68 425.88 606.40
  Q 444.91 605.39 463.71 602.55
  A 0.54 0.53 -7.0 0 0 464.16 601.98
  C 463.07 587.40 461.09 571.52 459.88 558.30
  Q 454.63 500.97 448.35 443.74
  Q 448.13 441.76 446.77 441.38
  Q 436.55 438.49 426.38 434.35
  A 0.99 0.99 0.0 0 0 425.02 435.30
  L 431.26 601.97
  A 1.30 1.30 0.0 0 1 430.13 603.30
  L 419.15 604.70
  A 0.91 0.91 0.0 0 1 418.13 603.85
  Q 413.63 525.96 411.42 448.00
  Q 411.17 439.12 411.19 430.24
  Q 411.19 429.07 410.17 428.50
  Q 404.39 425.26 398.00 423.23
  Q 396.48 422.75 395.46 421.53
  Q 395.13 421.13 395.16 420.61
  C 395.39 415.96 395.75 411.66 394.99 406.82
  C 394.45 403.38 391.74 399.93 390.11 396.44
  Q 382.50 380.08 374.96 363.75
  Q 361.79 336.23 344.93 311.17
  Q 344.59 310.67 344.01 310.51
  Q 322.65 304.41 300.96 303.74
  L 296.97 303.43
  L 284.03 303.12
  C 276.84 303.42 271.37 308.54 263.81 309.18
  A 0.71 0.71 0.0 0 1 263.21 308.02
  Q 273.42 295.81 284.58 284.07
  Q 285.39 283.22 285.55 282.58
  Q 285.82 281.52 284.73 281.59
  C 276.02 282.12 267.95 282.67 258.81 283.80
  Q 247.81 285.16 236.76 286.12
  Q 236.10 286.18 235.68 285.87
  A 0.35 0.35 0.0 0 1 235.72 285.28
  C 246.99 279.40 257.87 273.77 269.75 268.56
  C 275.03 266.24 282.34 263.62 287.49 259.96
  Q 287.91 259.67 288.06 259.18
  C 289.11 255.79 288.49 250.20 288.46 246.61
  A 0.74 0.74 0.0 0 1 289.18 245.86
  Q 289.28 245.86 289.52 246.21
  C 296.91 256.74 305.85 263.32 318.90 272.67
  C 320.77 274.01 321.79 274.04 324.00 273.93
  C 341.65 273.08 360.57 270.40 373.00 256.99
  C 384.89 244.16 392.20 223.83 391.60 206.12
  A 0.47 0.47 0.0 0 0 390.96 205.70
  Q 390.41 205.92 390.09 206.63
  Q 384.14 220.22 370.44 225.86
  Q 353.54 232.80 335.37 234.68
  C 332.50 234.98 328.09 236.55 326.33 233.58
  C 316.95 217.75 307.80 200.79 303.08 182.94
  Q 302.72 181.54 301.27 181.54
  L 281.16 181.47
  Q 280.66 181.47 280.32 181.84
  L 192.08 275.50
  A 2.14 2.13 49.1 0 0 191.89 278.20
  L 197.46 286.11
  Z
  M 469.05 315.40
  Q 455.85 305.81 441.84 297.32
  C 440.76 296.67 439.01 296.10 437.99 296.46
  C 431.17 298.88 424.85 298.96 417.82 299.79
  L 404.21 299.80
  Q 403.32 299.80 403.05 300.64
  C 397.96 316.17 393.31 331.68 387.58 346.84
  Q 387.35 347.46 387.60 348.08
  L 391.42 357.43
  L 392.23 359.05
  L 404.70 393.87
  Q 404.95 394.58 405.67 394.83
  C 419.96 399.67 434.39 403.56 448.84 407.39
  Q 449.88 407.66 450.64 406.91
  C 460.60 397.11 471.05 387.50 480.56 377.93
  Q 495.48 362.92 510.63 348.16
  C 513.86 345.01 517.80 341.83 521.25 338.62
  Q 522.72 338.29 522.67 337.52
  Q 522.64 336.94 521.85 335.46
  Q 510.53 314.23 498.02 292.18
  Q 497.32 290.94 495.91 291.08
  C 484.06 292.26 472.53 292.85 460.70 291.29
  A 0.70 0.69 76.3 0 0 460.04 292.38
  Q 465.26 299.89 470.16 307.26
  C 472.27 310.44 476.05 315.08 478.34 319.41
  Q 479.88 322.32 477.11 320.55
  L 469.05 315.40
  Z
  M 378.97 331.62
  L 380.35 302.50
  Q 380.42 301.00 378.93 301.12
  C 373.41 301.54 366.21 302.02 360.78 300.44
  A 0.59 0.59 0.0 0 0 360.05 301.18
  Q 360.25 301.82 360.74 302.52
  C 366.92 311.33 371.55 321.28 376.91 330.61
  Q 377.51 331.66 378.09 332.06
  Q 378.93 332.64 378.97 331.62
  Z
  M 334.63 630.85
  Q 328.61 630.00 322.86 628.16
  Q 322.78 628.13 322.75 628.22
  L 322.66 628.45
  A 0.36 0.35 -66.9 0 0 322.84 628.90
  C 341.95 637.92 359.70 647.89 376.62 660.46
  A 1.05 1.03 -43.2 0 0 377.81 660.49
  Q 384.32 656.24 390.56 651.85
  Q 408.15 639.49 425.98 630.71
  Q 430.98 628.25 425.49 629.21
  C 416.75 630.73 407.21 632.16 398.46 632.85
  Q 366.47 635.35 334.63 630.85
  Z"
/>
<path fill="#fca20e" d="
  M 401.93 93.38
  Q 389.09 94.82 376.12 95.11
  Q 373.80 95.17 373.30 92.82
  Q 373.09 92.60 374.29 91.87
  Q 374.85 91.53 375.56 91.47
  Q 386.84 90.45 398.20 90.24
  C 399.63 90.21 400.94 90.57 402.36 90.80
  Q 402.88 90.88 402.93 91.41
  Q 403.01 92.45 401.93 93.38
  Z"
/>
<path fill="#fbf4eb" d="
  M 292.31 101.56
  A 1.63 1.57 -60.6 0 1 293.45 101.22
  C 314.85 103.43 336.25 105.44 357.48 108.71
  Q 357.96 108.79 357.96 109.27
  L 358.45 160.59
  Q 358.46 161.48 357.58 161.56
  Q 318.80 165.00 279.87 165.44
  Q 279.02 165.45 279.05 164.60
  C 279.50 148.17 280.65 131.47 279.98 115.00
  C 279.84 111.72 289.77 103.59 292.31 101.56
  Z
  M 292.63 152.05
  C 308.72 153.85 325.05 154.85 341.16 152.87
  C 344.75 152.43 347.01 151.28 349.76 149.23
  A 0.66 0.66 0.0 0 0 349.75 148.17
  C 347.03 146.27 344.47 145.43 340.95 145.73
  Q 327.01 146.91 313.14 148.80
  C 306.41 149.72 299.52 150.07 292.69 150.76
  A 0.56 0.54 17.9 0 0 292.34 150.93
  Q 291.42 151.92 292.63 152.05
  Z"
/>
<path fill="#fbf4eb" d="
  M 434.46 252.29
  L 401.29 246.80
  C 409.51 231.04 409.09 208.92 404.55 192.23
  Q 403.31 187.68 396.31 170.46
  C 394.70 166.49 393.08 165.22 388.75 164.18
  Q 382.98 162.80 377.20 162.22
  Q 376.41 162.14 376.41 161.35
  L 376.31 115.17
  A 0.90 0.90 0.0 0 1 377.17 114.27
  C 378.42 114.21 379.73 114.30 380.95 114.12
  Q 408.12 110.25 435.36 106.90
  Q 437.92 106.58 440.11 106.49
  A 2.96 2.94 65.1 0 1 442.23 107.27
  Q 447.22 111.81 451.58 117.21
  Q 452.29 118.08 452.21 120.26
  Q 451.52 138.46 448.94 156.49
  Q 448.83 157.24 448.65 157.78
  A 0.58 0.58 0.0 0 1 447.65 157.96
  L 442.26 151.29
  Q 441.18 149.94 439.49 150.33
  C 424.87 153.71 409.60 154.91 389.50 156.95
  Q 388.77 157.02 389.03 157.78
  Q 389.17 158.20 389.61 158.31
  Q 393.38 159.18 396.50 159.25
  Q 416.97 159.73 431.25 160.61
  C 434.78 160.83 437.47 161.64 440.75 163.76
  Q 443.75 165.70 446.81 166.68
  A 1.51 1.51 0.0 0 1 447.84 168.36
  L 434.46 252.29
  Z"
/>
<path fill="#fca20e" d="
  M 472.53 109.64
  Q 479.75 112.61 486.59 115.81
  Q 502.27 123.13 517.78 130.80
  C 526.62 135.17 535.16 140.09 543.81 144.82
  C 547.39 146.77 551.35 149.84 555.00 151.44
  A 10.36 10.27 -11.8 0 1 557.75 153.22
  Q 562.74 157.66 569.02 160.75
  Q 578.78 170.72 588.94 181.80
  Q 605.89 200.30 621.80 219.70
  Q 625.17 223.80 629.32 227.04
  Q 629.10 301.46 629.31 376.50
  C 629.32 380.39 630.34 386.55 627.20 389.46
  C 622.75 393.58 618.13 397.63 614.05 401.97
  C 594.18 423.07 576.92 443.63 562.23 468.42
  C 559.78 472.56 560.81 481.56 561.46 486.48
  Q 564.58 509.94 567.67 533.40
  Q 567.96 535.60 568.14 537.80
  C 568.43 541.46 569.37 545.03 569.69 548.71
  C 570.29 555.52 571.53 562.10 572.83 568.80
  C 573.76 573.62 573.25 578.55 574.53 583.21
  C 575.89 588.15 575.90 593.54 576.30 598.63
  C 576.41 600.03 577.03 601.46 576.85 603.14
  Q 576.81 603.54 576.42 603.61
  Q 575.59 603.77 575.38 603.13
  C 574.32 599.96 573.44 594.77 569.35 594.33
  L 547.56 419.74
  Q 547.54 419.57 547.37 419.58
  L 547.36 419.58
  Q 547.18 419.60 547.19 419.77
  Q 547.63 435.75 547.58 451.75
  Q 547.41 515.37 547.46 578.38
  A 1.70 1.69 82.1 0 1 546.23 580.01
  Q 517.80 588.04 490.40 598.96
  Q 485.22 519.69 479.81 441.00
  C 479.61 438.05 477.91 430.11 479.89 427.99
  C 483.66 423.97 487.09 419.84 490.74 415.74
  Q 494.00 412.07 498.77 407.23
  C 511.46 394.35 522.89 380.56 535.20 367.38
  C 540.66 361.54 545.87 355.25 551.79 349.97
  A 2.14 2.13 61.6 0 0 552.43 347.81
  C 549.48 337.15 545.84 326.23 542.10 315.96
  Q 532.52 289.68 523.03 263.81
  Q 522.37 262.00 522.59 260.09
  Q 523.26 254.33 524.38 248.28
  Q 532.59 203.69 538.03 179.00
  C 539.35 173.02 537.54 170.92 533.73 165.90
  Q 528.74 159.32 523.54 153.93
  Q 519.46 149.71 513.64 149.14
  C 502.22 148.03 490.91 146.06 479.46 144.97
  C 478.00 144.83 475.65 145.03 473.80 144.30
  A 2.34 2.34 0.0 0 1 472.32 142.11
  L 472.53 109.64
  Z"
/>
<path fill="#fca20e" d="
  M 258.17 127.24
  Q 257.68 132.43 257.36 137.58
  C 256.49 151.58 255.04 165.58 253.88 179.58
  C 253.48 184.37 251.84 187.21 248.53 190.29
  Q 234.63 203.25 221.45 216.94
  Q 205.77 233.23 189.97 249.39
  C 182.44 257.09 175.05 264.91 167.49 272.60
  C 164.72 275.42 167.95 278.96 168.92 281.74
  C 181.18 317.23 194.49 352.28 207.96 387.32
  C 210.13 392.98 211.79 399.93 216.83 403.69
  C 224.90 409.71 233.10 416.19 240.88 421.90
  Q 261.46 437.01 273.44 446.31
  C 274.91 447.45 274.74 449.00 274.61 450.75
  C 273.12 470.24 272.18 489.78 270.74 509.22
  Q 267.85 548.43 265.51 587.67
  C 265.30 591.20 264.60 595.84 264.54 599.96
  Q 244.28 592.49 233.50 589.03
  Q 218.64 584.26 203.03 580.51
  A 1.46 1.46 0.0 0 1 201.91 579.03
  Q 202.16 573.72 202.70 568.02
  Q 208.48 506.80 211.74 478.50
  Q 214.29 456.36 215.15 445.49
  Q 216.50 428.45 218.77 411.53
  Q 218.77 411.50 218.75 411.50
  L 218.50 411.46
  Q 218.24 411.41 218.18 411.67
  C 214.59 428.62 211.18 445.35 207.14 462.49
  Q 194.91 514.45 185.43 567.00
  Q 183.54 577.49 179.41 595.37
  C 175.30 596.53 176.62 599.72 175.00 602.25
  Q 174.70 602.72 174.26 602.59
  Q 173.81 602.45 173.83 601.97
  Q 173.90 600.83 174.10 599.80
  Q 178.02 580.37 181.50 560.87
  Q 181.51 560.78 181.56 559.62
  C 181.60 558.73 182.13 558.38 182.28 557.61
  Q 187.37 532.16 192.47 506.72
  C 194.03 498.98 196.59 489.25 198.22 478.24
  C 199.42 470.13 197.60 467.53 193.03 460.24
  Q 183.49 445.01 173.85 433.65
  C 158.64 415.72 147.83 403.98 133.00 391.00
  A 3.65 3.62 -67.6 0 1 131.77 388.02
  Q 132.04 384.11 132.04 379.75
  Q 132.02 305.63 132.04 231.50
  Q 132.04 228.72 132.69 226.59
  Q 135.75 223.91 139.46 219.47
  Q 158.79 196.35 183.39 170.49
  Q 183.22 172.13 185.16 170.60
  Q 185.66 170.21 186.28 169.44
  Q 188.68 166.48 192.65 163.41
  Q 204.26 154.40 214.07 148.62
  C 226.64 141.21 239.57 133.72 253.20 128.43
  Q 255.44 127.56 258.17 127.24
  Z"
/>
<path fill="#060e13" d="
  M 629.32 227.04
  Q 625.17 223.80 621.80 219.70
  Q 605.89 200.30 588.94 181.80
  Q 578.78 170.72 569.02 160.75
  C 563.73 153.77 558.23 148.08 553.86 140.58
  A 0.46 0.45 -28.7 0 1 554.05 139.94
  Q 554.48 139.72 555.21 140.30
  Q 586.37 165.13 615.91 191.88
  Q 622.35 197.71 628.77 202.86
  Q 629.46 203.41 629.45 204.30
  L 629.32 227.04
  Z"
/>
<path fill="#060e13" d="
  M 183.39 170.49
  Q 158.79 196.35 139.46 219.47
  Q 135.75 223.91 132.69 226.59
  L 132.60 204.08
  A 1.27 1.26 -20.9 0 1 133.03 203.13
  L 159.21 180.10
  L 167.25 173.22
  L 169.33 171.50
  Q 186.95 155.93 205.20 141.19
  Q 205.65 140.83 205.98 140.80
  A 0.53 0.53 0.0 0 1 206.46 141.62
  C 201.71 148.86 195.77 155.05 190.64 161.79
  Q 187.23 166.27 183.39 170.49
  Z"
/>
<path fill="#060e13" d="
  M 341.16 152.87
  C 325.05 154.85 308.72 153.85 292.63 152.05
  Q 291.42 151.92 292.34 150.93
  A 0.56 0.54 17.9 0 1 292.69 150.76
  C 299.52 150.07 306.41 149.72 313.14 148.80
  Q 327.01 146.91 340.95 145.73
  C 344.47 145.43 347.03 146.27 349.75 148.17
  A 0.66 0.66 0.0 0 1 349.76 149.23
  C 347.01 151.28 344.75 152.43 341.16 152.87
  Z"
/>
<path fill="#fbf4eb" d="
  M 498.57 252.29
  C 496.25 251.81 493.94 251.08 491.78 250.69
  Q 478.05 248.20 464.33 245.63
  C 461.26 245.05 458.13 245.04 454.94 244.79
  C 459.87 217.17 462.92 191.11 466.59 164.26
  Q 466.79 162.76 467.03 161.56
  A 1.44 1.44 0.0 0 1 468.69 160.43
  C 480.23 162.51 491.93 163.46 503.57 164.85
  C 508.38 165.43 514.73 175.63 517.46 179.44
  A 3.45 3.43 -54.3 0 1 517.95 182.47
  L 509.73 208.55
  A 0.69 0.69 0.0 0 1 508.49 208.72
  C 506.29 205.35 504.16 201.76 499.54 201.98
  Q 485.77 202.66 472.01 202.32
  Q 471.02 202.29 470.75 202.93
  A 0.61 0.61 0.0 0 0 471.17 203.77
  C 484.02 206.85 496.03 208.27 507.61 214.91
  Q 508.06 215.17 508.02 215.68
  Q 507.94 216.85 507.62 218.26
  Q 503.39 236.47 498.57 252.29
  Z"
/>
<path fill="#fbf4eb" d="
  M 169.33 171.50
  L 167.25 173.22
  Q 167.09 172.70 167.15 172.12
  Q 167.20 171.57 166.65 171.53
  L 165.68 171.47
  C 166.87 170.60 168.01 169.09 169.60 169.22
  Q 170.16 169.26 169.87 169.75
  Q 169.37 170.61 169.33 171.50
  Z"
/>
<path fill="#f5f6f6" d="
  M 165.68 171.47
  L 166.65 171.53
  Q 167.20 171.57 167.15 172.12
  Q 167.09 172.70 167.25 173.22
  L 159.21 180.10
  Q 157.90 179.42 158.88 178.00
  Q 161.39 174.36 165.68 171.47
  Z"
/>
<path fill="#fbf4eb" d="
  M 334.09 176.88
  Q 343.16 175.67 352.24 174.55
  Q 362.42 173.30 368.26 173.71
  C 376.60 174.30 386.28 191.13 384.09 198.62
  C 382.98 202.45 381.51 206.24 377.96 208.44
  C 370.37 213.16 360.64 216.08 352.05 218.30
  A 1.52 1.51 -29.4 0 1 350.59 217.90
  C 341.16 208.45 335.69 195.16 331.58 183.45
  Q 330.81 181.24 331.00 178.25
  Q 331.04 177.77 331.49 177.58
  Q 332.76 177.06 334.09 176.88
  Z"
/>
<path fill="#fbf4eb" d="
  M 344.29 220.93
  L 335.39 224.25
  A 2.42 2.42 0.0 0 1 332.52 223.33
  C 323.81 210.33 317.28 195.99 311.95 182.20
  Q 311.20 180.28 313.25 180.09
  L 316.33 179.81
  Q 318.35 179.63 319.35 181.39
  C 326.83 194.51 332.90 209.75 344.47 220.00
  A 0.55 0.55 0.0 0 1 344.29 220.93
  Z"
/>
<path fill="#fbf4eb" d="
  M 284.03 303.12
  L 296.97 303.43
  L 300.96 303.74
  L 296.63 303.64
  A 0.70 0.69 -7.1 0 0 295.94 304.52
  Q 296.64 307.08 299.25 307.64
  Q 301.97 308.23 304.74 308.40
  C 311.45 308.82 318.10 309.94 324.78 310.67
  C 327.80 310.99 331.50 312.25 334.15 313.71
  Q 334.62 313.97 335.20 313.86
  Q 335.75 313.77 336.19 314.11
  Q 337.19 314.89 338.51 315.06
  Q 338.98 315.13 339.36 315.41
  Q 341.28 316.84 342.42 318.96
  Q 342.67 319.42 343.11 319.70
  C 344.77 320.76 346.96 324.34 348.23 326.04
  C 350.65 329.29 352.74 333.20 355.09 336.80
  C 356.41 338.83 357.27 341.31 358.63 343.46
  Q 360.50 346.39 361.37 348.35
  Q 362.57 351.02 363.98 353.60
  C 365.33 356.09 367.81 358.01 369.10 361.02
  Q 369.31 361.52 369.81 361.75
  Q 371.36 362.47 372.52 363.69
  Q 372.83 364.02 373.28 363.96
  L 374.96 363.75
  Q 382.50 380.08 390.11 396.44
  C 391.74 399.93 394.45 403.38 394.99 406.82
  C 395.75 411.66 395.39 415.96 395.16 420.61
  Q 395.13 421.13 395.46 421.53
  Q 396.48 422.75 398.00 423.23
  Q 404.39 425.26 410.17 428.50
  Q 411.19 429.07 411.19 430.24
  Q 411.17 439.12 411.42 448.00
  Q 413.63 525.96 418.13 603.85
  A 0.91 0.91 0.0 0 0 419.15 604.70
  L 430.13 603.30
  A 1.30 1.30 0.0 0 0 431.26 601.97
  L 425.02 435.30
  A 0.99 0.99 0.0 0 1 426.38 434.35
  Q 436.55 438.49 446.77 441.38
  Q 448.13 441.76 448.35 443.74
  Q 454.63 500.97 459.88 558.30
  C 461.09 571.52 463.07 587.40 464.16 601.98
  A 0.54 0.53 -7.0 0 1 463.71 602.55
  Q 444.91 605.39 425.88 606.40
  C 420.58 606.68 414.74 607.44 410.03 607.71
  Q 370.55 609.92 330.89 607.43
  Q 330.41 607.02 330.84 605.75
  Q 331.16 604.81 331.21 604.19
  Q 333.20 581.98 334.49 559.73
  C 336.28 528.95 338.67 498.20 340.49 467.42
  C 340.91 460.24 342.00 450.35 342.23 441.75
  Q 346.61 439.75 351.44 439.25
  A 0.75 0.75 0.0 0 1 352.26 439.95
  Q 353.41 457.90 354.91 475.79
  C 356.83 498.60 358.35 521.44 360.13 544.26
  C 360.81 552.99 361.08 562.93 361.76 572.27
  A 0.81 0.81 0.0 0 0 362.57 573.02
  Q 363.30 573.02 363.37 572.00
  Q 364.95 549.01 366.65 526.06
  Q 366.67 524.54 367.92 521.02
  C 368.65 518.99 368.34 515.14 368.73 512.69
  Q 370.81 499.65 371.81 491.99
  Q 373.75 477.13 377.03 450.41
  C 377.57 446.01 378.08 441.89 379.28 437.59
  C 380.15 434.45 380.39 430.78 381.02 427.86
  Q 381.86 423.98 382.66 417.75
  Q 382.78 416.85 383.74 414.06
  C 384.65 411.44 385.55 405.53 384.29 403.03
  C 383.35 398.65 382.13 391.56 378.31 389.51
  L 376.40 389.43
  Q 375.98 389.41 375.88 389.01
  C 375.36 386.91 374.04 386.04 373.11 384.14
  Q 372.78 383.47 372.12 383.33
  Q 371.65 383.23 371.32 382.89
  Q 361.23 372.40 352.35 360.87
  A 1.19 1.19 0.0 0 0 350.81 360.56
  Q 347.61 362.40 343.95 363.62
  C 323.02 370.57 299.61 371.24 279.28 361.89
  Q 276.83 360.48 274.49 359.08
  C 270.23 356.53 266.33 353.16 262.35 350.15
  Q 256.96 346.06 240.36 329.40
  Q 218.97 307.93 197.46 286.11
  L 191.89 278.20
  A 2.14 2.13 49.1 0 1 192.08 275.50
  L 280.32 181.84
  Q 280.66 181.47 281.16 181.47
  L 301.27 181.54
  Q 302.72 181.54 303.08 182.94
  C 307.80 200.79 316.95 217.75 326.33 233.58
  C 328.09 236.55 332.50 234.98 335.37 234.68
  Q 353.54 232.80 370.44 225.86
  Q 384.14 220.22 390.09 206.63
  Q 390.41 205.92 390.96 205.70
  A 0.47 0.47 0.0 0 1 391.60 206.12
  C 392.20 223.83 384.89 244.16 373.00 256.99
  C 360.57 270.40 341.65 273.08 324.00 273.93
  C 321.79 274.04 320.77 274.01 318.90 272.67
  C 305.85 263.32 296.91 256.74 289.52 246.21
  Q 289.28 245.86 289.18 245.86
  A 0.74 0.74 0.0 0 0 288.46 246.61
  C 288.49 250.20 289.11 255.79 288.06 259.18
  Q 287.91 259.67 287.49 259.96
  C 282.34 263.62 275.03 266.24 269.75 268.56
  C 257.87 273.77 246.99 279.40 235.72 285.28
  A 0.35 0.35 0.0 0 0 235.68 285.87
  Q 236.10 286.18 236.76 286.12
  Q 247.81 285.16 258.81 283.80
  C 267.95 282.67 276.02 282.12 284.73 281.59
  Q 285.82 281.52 285.55 282.58
  Q 285.39 283.22 284.58 284.07
  Q 273.42 295.81 263.21 308.02
  A 0.71 0.71 0.0 0 0 263.81 309.18
  C 271.37 308.54 276.84 303.42 284.03 303.12
  Z"
/>
<path fill="#fca20e" d="
  M 454.94 244.79
  C 458.13 245.04 461.26 245.05 464.33 245.63
  Q 478.05 248.20 491.78 250.69
  C 493.94 251.08 496.25 251.81 498.57 252.29
  Q 497.24 258.57 495.35 263.27
  C 489.59 277.51 460.67 269.97 450.71 266.57
  A 1.46 1.46 0.0 0 1 449.80 264.73
  Q 453.10 254.77 454.94 244.79
  Z
  M 459.33 259.15
  Q 469.17 261.46 479.27 260.97
  A 0.83 0.83 0.0 0 0 480.06 260.16
  L 480.07 259.83
  A 0.37 0.37 0.0 0 0 479.74 259.45
  L 459.94 257.47
  Q 458.95 257.37 458.97 258.36
  L 458.97 258.70
  A 0.48 0.46 -84.6 0 0 459.33 259.15
  Z"
/>
<path fill="#fca20e" d="
  M 401.29 246.80
  L 434.46 252.29
  Q 433.41 258.17 432.80 264.77
  Q 432.06 272.67 424.36 274.55
  C 412.12 277.54 396.60 274.76 385.13 269.98
  A 1.06 1.06 0.0 0 1 384.76 268.27
  Q 387.80 265.05 390.76 261.77
  C 394.89 257.19 397.99 252.03 401.29 246.80
  Z
  M 396.97 261.33
  L 396.95 263.31
  A 0.28 0.28 0.0 0 0 397.23 263.59
  L 401.65 263.64
  A 18.76 1.14 0.7 0 0 420.42 262.73
  L 420.42 262.47
  A 18.76 1.14 0.7 0 0 401.68 261.10
  L 397.26 261.05
  A 0.28 0.28 0.0 0 0 396.97 261.33
  Z"
/>
<path fill="#060e13" d="
  M 459.33 259.15
  A 0.48 0.46 -84.6 0 1 458.97 258.70
  L 458.97 258.36
  Q 458.95 257.37 459.94 257.47
  L 479.74 259.45
  A 0.37 0.37 0.0 0 1 480.07 259.83
  L 480.06 260.16
  A 0.83 0.83 0.0 0 1 479.27 260.97
  Q 469.17 261.46 459.33 259.15
  Z"
/>
<path fill="#060e13" d="
  M 396.97 261.33
  A 0.28 0.28 0.0 0 1 397.26 261.05
  L 401.68 261.10
  A 18.76 1.14 0.7 0 1 420.42 262.47
  L 420.42 262.73
  A 18.76 1.14 0.7 0 1 401.65 263.64
  L 397.23 263.59
  A 0.28 0.28 0.0 0 1 396.95 263.31
  L 396.97 261.33
  Z"
/>
<path fill="#e07608" d="
  M 197.46 286.11
  Q 218.97 307.93 240.36 329.40
  Q 256.96 346.06 262.35 350.15
  C 266.33 353.16 270.23 356.53 274.49 359.08
  Q 276.83 360.48 279.28 361.89
  Q 273.77 360.80 269.87 357.13
  Q 268.45 355.80 267.35 355.62
  Q 267.21 355.60 267.16 355.53
  Q 267.07 355.43 267.07 355.25
  Q 267.08 354.95 266.86 354.75
  Q 265.61 353.56 262.24 351.11
  Q 257.88 347.93 244.06 334.19
  Q 234.65 324.84 225.05 315.69
  C 224.11 314.80 223.06 314.28 222.01 313.49
  Q 221.43 313.05 220.84 313.47
  Q 220.69 313.58 220.41 313.58
  A 1.15 0.82 56.7 0 0 220.34 315.46
  C 222.43 317.09 221.91 319.63 222.81 321.49
  Q 223.99 323.93 225.47 326.22
  Q 226.22 327.39 227.27 331.24
  Q 228.15 334.44 230.66 339.37
  Q 232.74 343.45 234.44 347.30
  C 236.79 352.64 240.04 358.34 242.23 362.86
  C 247.14 373.02 252.02 384.92 260.53 391.21
  Q 275.02 401.91 293.08 412.13
  C 297.21 414.47 301.23 413.06 306.00 411.51
  C 314.45 408.76 322.78 405.51 331.32 403.10
  Q 334.43 402.23 337.42 400.95
  C 338.63 400.43 339.92 400.59 341.18 400.72
  Q 341.58 400.76 341.93 400.55
  L 343.96 399.36
  Q 344.42 399.09 344.75 399.50
  Q 344.88 399.66 344.88 399.86
  Q 344.90 400.37 344.43 400.57
  L 335.90 404.29
  Q 335.51 404.46 335.23 404.77
  Q 334.81 405.22 334.20 405.16
  Q 333.70 405.11 333.29 405.41
  Q 331.68 406.63 329.73 407.12
  Q 329.19 407.26 328.80 407.64
  Q 328.00 408.42 326.94 408.37
  Q 326.50 408.35 326.14 408.61
  Q 324.43 409.87 322.39 410.30
  C 320.87 410.62 320.34 411.50 319.25 411.87
  Q 314.44 413.47 309.95 415.81
  C 308.44 416.60 306.64 416.99 305.02 417.72
  C 302.14 419.03 299.29 419.32 296.46 420.49
  Q 293.17 421.86 295.18 422.59
  Q 293.16 423.81 291.86 422.88
  Q 278.94 413.60 266.31 403.95
  C 261.01 399.90 251.59 393.80 246.02 388.22
  Q 244.33 386.52 242.31 381.75
  C 230.38 353.60 217.78 325.15 203.55 298.09
  Q 200.45 292.20 197.46 286.11
  Z"
/>
<path fill="#fbf4eb" d="
  M 521.25 338.62
  C 510.73 336.67 501.26 336.02 492.03 332.61
  C 489.64 331.73 488.18 332.15 486.46 334.10
  Q 474.82 347.32 460.84 358.06
  C 442.40 372.24 420.83 367.57 400.71 361.52
  Q 399.07 359.96 397.07 359.77
  Q 396.61 359.73 396.37 359.33
  C 395.44 357.79 393.12 357.76 391.42 357.43
  L 387.60 348.08
  Q 387.35 347.46 387.58 346.84
  C 393.31 331.68 397.96 316.17 403.05 300.64
  Q 403.32 299.80 404.21 299.80
  L 417.82 299.79
  L 410.55 301.19
  Q 410.26 301.25 410.31 301.54
  Q 410.48 302.47 411.22 302.39
  A 0.36 0.36 0.0 0 1 411.62 302.75
  L 411.62 303.24
  Q 411.62 303.60 411.98 303.63
  Q 412.34 303.67 412.63 303.48
  Q 413.11 303.19 413.64 303.39
  Q 418.96 305.40 424.22 303.93
  Q 426.95 303.16 428.90 303.13
  Q 432.62 303.07 436.33 302.59
  Q 439.09 302.23 440.19 302.41
  C 442.76 302.83 443.89 305.06 445.82 306.33
  Q 447.95 307.74 448.00 307.78
  C 449.59 309.17 450.86 310.79 452.95 311.47
  C 455.35 312.25 456.23 314.11 458.33 315.02
  C 461.19 316.24 463.06 317.28 465.50 317.87
  Q 465.73 317.93 466.07 318.34
  Q 466.36 318.68 466.77 318.48
  L 468.71 317.50
  Q 469.17 317.27 469.14 316.75
  L 469.05 315.40
  L 477.11 320.55
  Q 479.88 322.32 478.34 319.41
  C 476.05 315.08 472.27 310.44 470.16 307.26
  Q 465.26 299.89 460.04 292.38
  A 0.70 0.69 76.3 0 1 460.70 291.29
  C 472.53 292.85 484.06 292.26 495.91 291.08
  Q 497.32 290.94 498.02 292.18
  Q 510.53 314.23 521.85 335.46
  Q 522.64 336.94 522.67 337.52
  Q 522.72 338.29 521.25 338.62
  Z"
/>
<path fill="#f5f6f6" d="
  M 469.05 315.40
  L 469.14 316.75
  Q 469.17 317.27 468.71 317.50
  L 466.77 318.48
  Q 466.36 318.68 466.07 318.34
  Q 465.73 317.93 465.50 317.87
  C 463.06 317.28 461.19 316.24 458.33 315.02
  C 456.23 314.11 455.35 312.25 452.95 311.47
  C 450.86 310.79 449.59 309.17 448.00 307.78
  Q 447.95 307.74 445.82 306.33
  C 443.89 305.06 442.76 302.83 440.19 302.41
  Q 439.09 302.23 436.33 302.59
  Q 432.62 303.07 428.90 303.13
  Q 426.95 303.16 424.22 303.93
  Q 418.96 305.40 413.64 303.39
  Q 413.11 303.19 412.63 303.48
  Q 412.34 303.67 411.98 303.63
  Q 411.62 303.60 411.62 303.24
  L 411.62 302.75
  A 0.36 0.36 0.0 0 0 411.22 302.39
  Q 410.48 302.47 410.31 301.54
  Q 410.26 301.25 410.55 301.19
  L 417.82 299.79
  C 424.85 298.96 431.17 298.88 437.99 296.46
  C 439.01 296.10 440.76 296.67 441.84 297.32
  Q 455.85 305.81 469.05 315.40
  Z"
/>
<path fill="#f5f6f6" d="
  M 380.35 302.50
  L 378.97 331.62
  Q 378.93 332.64 378.09 332.06
  Q 377.51 331.66 376.91 330.61
  C 371.55 321.28 366.92 311.33 360.74 302.52
  Q 360.25 301.82 360.05 301.18
  A 0.59 0.59 0.0 0 1 360.78 300.44
  C 366.21 302.02 373.41 301.54 378.93 301.12
  Q 380.42 301.00 380.35 302.50
  Z"
/>
<path fill="#dad1c6" d="
  M 296.97 303.43
  L 284.03 303.12
  L 296.97 303.43
  Z"
/>
<path fill="#f5f6f6" d="
  M 300.96 303.74
  Q 322.65 304.41 344.01 310.51
  Q 344.59 310.67 344.93 311.17
  Q 361.79 336.23 374.96 363.75
  L 373.28 363.96
  Q 372.83 364.02 372.52 363.69
  Q 371.36 362.47 369.81 361.75
  Q 369.31 361.52 369.10 361.02
  C 367.81 358.01 365.33 356.09 363.98 353.60
  Q 362.57 351.02 361.37 348.35
  Q 360.50 346.39 358.63 343.46
  C 357.27 341.31 356.41 338.83 355.09 336.80
  C 352.74 333.20 350.65 329.29 348.23 326.04
  C 346.96 324.34 344.77 320.76 343.11 319.70
  Q 342.67 319.42 342.42 318.96
  Q 341.28 316.84 339.36 315.41
  Q 338.98 315.13 338.51 315.06
  Q 337.19 314.89 336.19 314.11
  Q 335.75 313.77 335.20 313.86
  Q 334.62 313.97 334.15 313.71
  C 331.50 312.25 327.80 310.99 324.78 310.67
  C 318.10 309.94 311.45 308.82 304.74 308.40
  Q 301.97 308.23 299.25 307.64
  Q 296.64 307.08 295.94 304.52
  A 0.70 0.69 -7.1 0 1 296.63 303.64
  L 300.96 303.74
  Z"
/>
<path fill="#fca20e" d="
  M 279.28 361.89
  C 299.61 371.24 323.02 370.57 343.95 363.62
  Q 347.61 362.40 350.81 360.56
  A 1.19 1.19 0.0 0 1 352.35 360.87
  Q 361.23 372.40 371.32 382.89
  Q 371.65 383.23 372.12 383.33
  Q 372.78 383.47 373.11 384.14
  C 374.04 386.04 375.36 386.91 375.88 389.01
  Q 375.98 389.41 376.40 389.43
  L 378.31 389.51
  Q 371.56 391.00 364.88 393.89
  Q 333.60 407.45 302.01 420.24
  Q 300.25 420.96 295.18 422.59
  Q 293.17 421.86 296.46 420.49
  C 299.29 419.32 302.14 419.03 305.02 417.72
  C 306.64 416.99 308.44 416.60 309.95 415.81
  Q 314.44 413.47 319.25 411.87
  C 320.34 411.50 320.87 410.62 322.39 410.30
  Q 324.43 409.87 326.14 408.61
  Q 326.50 408.35 326.94 408.37
  Q 328.00 408.42 328.80 407.64
  Q 329.19 407.26 329.73 407.12
  Q 331.68 406.63 333.29 405.41
  Q 333.70 405.11 334.20 405.16
  Q 334.81 405.22 335.23 404.77
  Q 335.51 404.46 335.90 404.29
  L 344.43 400.57
  Q 344.90 400.37 344.88 399.86
  Q 344.88 399.66 344.75 399.50
  Q 344.42 399.09 343.96 399.36
  L 341.93 400.55
  Q 341.58 400.76 341.18 400.72
  C 339.92 400.59 338.63 400.43 337.42 400.95
  Q 334.43 402.23 331.32 403.10
  C 322.78 405.51 314.45 408.76 306.00 411.51
  C 301.23 413.06 297.21 414.47 293.08 412.13
  Q 275.02 401.91 260.53 391.21
  C 252.02 384.92 247.14 373.02 242.23 362.86
  C 240.04 358.34 236.79 352.64 234.44 347.30
  Q 232.74 343.45 230.66 339.37
  Q 228.15 334.44 227.27 331.24
  Q 226.22 327.39 225.47 326.22
  Q 223.99 323.93 222.81 321.49
  C 221.91 319.63 222.43 317.09 220.34 315.46
  A 1.15 0.82 56.7 0 1 220.41 313.58
  Q 220.69 313.58 220.84 313.47
  Q 221.43 313.05 222.01 313.49
  C 223.06 314.28 224.11 314.80 225.05 315.69
  Q 234.65 324.84 244.06 334.19
  Q 257.88 347.93 262.24 351.11
  Q 265.61 353.56 266.86 354.75
  Q 267.08 354.95 267.07 355.25
  Q 267.07 355.43 267.16 355.53
  Q 267.21 355.60 267.35 355.62
  Q 268.45 355.80 269.87 357.13
  Q 273.77 360.80 279.28 361.89
  Z"
/>
<path fill="#fca20e" d="
  M 521.25 338.62
  C 517.80 341.83 513.86 345.01 510.63 348.16
  Q 495.48 362.92 480.56 377.93
  C 471.05 387.50 460.60 397.11 450.64 406.91
  Q 449.88 407.66 448.84 407.39
  C 434.39 403.56 419.96 399.67 405.67 394.83
  Q 404.95 394.58 404.70 393.87
  L 392.23 359.05
  L 400.71 361.52
  C 420.83 367.57 442.40 372.24 460.84 358.06
  Q 474.82 347.32 486.46 334.10
  C 488.18 332.15 489.64 331.73 492.03 332.61
  C 501.26 336.02 510.73 336.67 521.25 338.62
  Z"
/>
<path fill="#dad1c6" d="
  M 391.42 357.43
  C 393.12 357.76 395.44 357.79 396.37 359.33
  Q 396.61 359.73 397.07 359.77
  Q 399.07 359.96 400.71 361.52
  L 392.23 359.05
  L 391.42 357.43
  Z"
/>
<path fill="#fca20e" d="
  M 384.29 403.03
  C 385.55 405.53 384.65 411.44 383.74 414.06
  Q 382.78 416.85 382.66 417.75
  Q 381.86 423.98 381.02 427.86
  C 380.39 430.78 380.15 434.45 379.28 437.59
  C 378.08 441.89 377.57 446.01 377.03 450.41
  Q 373.75 477.13 371.81 491.99
  Q 370.81 499.65 368.73 512.69
  C 368.34 515.14 368.65 518.99 367.92 521.02
  Q 366.67 524.54 366.65 526.06
  Q 367.08 514.51 367.69 503.00
  Q 368.41 489.63 368.56 440.08
  C 368.58 436.03 369.01 431.87 369.28 427.79
  A 0.63 0.63 0.0 0 1 369.99 427.20
  Q 370.46 427.27 370.81 427.92
  Q 373.14 432.35 374.72 436.36
  Q 375.63 438.67 375.92 436.20
  C 376.58 430.61 378.38 425.25 379.63 419.77
  Q 380.71 415.05 383.39 408.92
  Q 384.47 406.45 384.29 403.03
  Z"
/>
<path fill="#fca20e" d="
  M 342.23 441.75
  C 342.00 450.35 340.91 460.24 340.49 467.42
  C 338.67 498.20 336.28 528.95 334.49 559.73
  Q 333.20 581.98 331.21 604.19
  Q 331.16 604.81 330.84 605.75
  Q 330.41 607.02 330.89 607.43
  L 313.05 606.14
  A 0.73 0.73 0.0 0 1 312.38 605.38
  L 320.24 446.37
  A 1.70 1.69 -0.4 0 1 321.82 444.77
  Q 332.32 444.12 342.23 441.75
  Z"
/>
<path fill="#f5f6f6" d="
  M 568.44 594.96
  Q 569.35 595.10 570.24 595.29
  Q 570.57 595.36 570.66 595.59
  A 0.48 0.46 71.5 0 1 570.36 596.21
  C 568.84 596.68 567.45 597.29 565.89 597.51
  Q 562.02 598.07 558.13 598.42
  C 553.35 598.84 548.70 600.34 543.80 600.93
  C 540.66 601.31 537.85 602.31 534.75 602.88
  Q 517.78 605.99 511.13 608.65
  Q 501.17 612.62 491.07 616.27
  Q 488.87 617.06 486.68 618.82
  Q 482.61 622.09 477.77 624.17
  Q 474.92 625.39 466.08 630.73
  Q 462.27 631.11 459.94 634.34
  L 453.11 637.94
  L 451.31 635.03
  Q 466.42 627.26 482.02 620.06
  C 483.34 619.45 484.16 617.22 485.93 616.32
  Q 488.20 615.17 492.99 613.26
  Q 520.86 602.13 547.55 597.60
  C 553.81 596.54 561.49 595.88 568.44 594.96
  Z"
/>
<path fill="#fbf4eb" d="
  M 180.48 595.62
  C 209.62 596.35 236.80 603.94 261.77 614.60
  C 267.73 617.15 272.96 621.76 278.86 624.40
  C 285.39 627.32 291.79 630.18 298.21 633.56
  C 313.32 641.52 328.63 649.18 343.21 658.32
  C 354.80 665.59 366.00 674.05 376.90 682.45
  A 1.91 1.91 0.0 0 0 379.30 682.41
  C 401.51 663.95 426.10 648.97 451.31 635.03
  L 453.11 637.94
  Q 448.69 641.15 443.00 642.61
  Q 441.92 642.89 441.15 644.51
  Q 440.95 644.92 440.57 645.17
  L 432.75 650.20
  A 0.23 0.22 -66.5 0 0 432.91 650.61
  Q 433.33 650.53 433.63 650.35
  Q 433.91 650.19 433.88 650.51
  Q 433.86 650.69 433.48 650.75
  A 0.31 0.31 0.0 0 0 433.53 651.37
  L 434.50 651.37
  Q 434.64 651.37 434.64 651.48
  Q 434.63 651.61 434.63 651.73
  Q 434.63 651.84 434.53 651.89
  Q 433.31 652.47 432.64 653.60
  Q 432.28 654.22 432.90 653.86
  L 437.96 650.93
  Q 440.73 649.33 438.79 651.95
  C 437.00 654.37 433.37 656.46 431.05 658.52
  C 420.79 667.60 410.16 675.87 400.28 685.44
  C 395.86 689.72 391.06 693.74 386.52 697.99
  C 383.73 700.61 381.42 703.60 379.13 706.59
  A 1.36 1.36 0.0 0 1 377.03 706.66
  C 374.72 704.02 372.60 701.28 370.20 698.91
  C 356.88 685.75 343.20 672.29 327.76 661.65
  C 326.30 660.64 324.96 658.98 322.87 657.89
  Q 320.00 656.38 314.81 652.42
  C 312.63 650.75 309.88 649.45 307.61 647.49
  Q 307.23 647.16 307.65 646.88
  Q 308.12 646.57 308.89 646.88
  C 315.92 649.73 322.76 655.09 329.78 658.77
  C 347.73 670.46 363.06 685.19 376.90 701.50
  A 0.64 0.63 -44.2 0 0 377.86 701.51
  Q 383.94 694.70 391.01 688.52
  C 398.92 681.61 406.71 673.91 414.57 667.65
  Q 420.09 663.24 425.74 658.99
  Q 426.64 658.32 427.11 657.02
  Q 427.28 656.54 426.79 656.42
  Q 425.74 656.15 424.92 656.79
  Q 424.49 657.12 423.95 657.14
  C 418.98 657.35 416.41 660.50 412.84 662.37
  C 408.40 664.70 404.23 667.87 400.54 670.01
  Q 389.18 676.61 379.08 684.83
  A 2.44 2.43 -45.5 0 1 376.06 684.86
  Q 356.53 669.67 334.73 657.55
  L 324.53 651.55
  Q 324.11 651.30 323.92 650.85
  Q 323.66 650.24 322.96 650.19
  Q 322.43 650.15 321.99 649.83
  Q 319.57 648.10 316.88 646.96
  Q 314.22 645.83 311.79 644.65
  C 309.47 643.52 307.00 643.02 304.89 641.80
  C 302.30 640.30 299.96 638.61 297.23 637.32
  Q 292.60 635.14 288.34 632.31
  Q 284.54 629.79 281.01 628.12
  Q 273.99 624.78 267.49 620.49
  Q 263.12 617.61 259.36 615.97
  Q 254.45 613.82 249.54 611.68
  C 247.91 610.97 245.63 610.52 244.26 609.84
  Q 242.02 608.72 240.09 608.22
  C 236.33 607.22 233.68 606.32 230.43 605.46
  C 225.34 604.10 220.24 602.06 215.25 601.12
  Q 210.98 600.32 202.42 599.13
  C 195.29 598.14 187.05 598.27 179.33 597.34
  Q 178.79 597.27 178.78 596.74
  Q 178.77 596.54 178.92 596.32
  Q 179.05 596.13 179.38 596.02
  Q 179.93 595.84 180.48 595.62
  Z"
/>
<path fill="#fca20e" d="
  M 334.63 630.85
  Q 366.47 635.35 398.46 632.85
  C 407.21 632.16 416.75 630.73 425.49 629.21
  Q 430.98 628.25 425.98 630.71
  Q 408.15 639.49 390.56 651.85
  Q 384.32 656.24 377.81 660.49
  A 1.05 1.03 -43.2 0 1 376.62 660.46
  C 359.70 647.89 341.95 637.92 322.84 628.90
  A 0.36 0.35 -66.9 0 1 322.66 628.45
  L 322.75 628.22
  Q 322.78 628.13 322.86 628.16
  Q 328.61 630.00 334.63 630.85
  Z"
/>
<path fill="#fbf4eb" d="
  M 466.08 630.73
  Q 464.86 631.93 462.93 632.36
  A 1.34 1.30 -78.3 0 0 462.12 632.91
  Q 461.31 634.10 459.94 634.34
  Q 462.27 631.11 466.08 630.73
  Z"
/>
<path fill="#fca20e" d="
  M 329.78 658.77
  Q 330.01 657.97 329.60 657.57
  Q 328.99 656.98 329.62 657.05
  L 332.82 657.38
  Q 333.30 657.43 333.70 657.69
  Q 334.41 658.17 334.73 657.55
  Q 356.53 669.67 376.06 684.86
  A 2.44 2.43 -45.5 0 0 379.08 684.83
  Q 389.18 676.61 400.54 670.01
  C 404.23 667.87 408.40 664.70 412.84 662.37
  C 416.41 660.50 418.98 657.35 423.95 657.14
  Q 424.49 657.12 424.92 656.79
  Q 425.74 656.15 426.79 656.42
  Q 427.28 656.54 427.11 657.02
  Q 426.64 658.32 425.74 658.99
  Q 420.09 663.24 414.57 667.65
  C 406.71 673.91 398.92 681.61 391.01 688.52
  Q 383.94 694.70 377.86 701.51
  A 0.64 0.63 -44.2 0 1 376.90 701.50
  C 363.06 685.19 347.73 670.46 329.78 658.77
  Z"
/>
</svg>
